# Blender v2.81 (sub 16) OBJ File: 'fish_var3.blend'
# www.blender.org
mtllib fish_var3.mtl
o Cube.001
v 0.038877 0.016958 0.127148
v -0.038877 0.016958 0.127148
v -0.013113 0.005720 0.180617
v 0.013113 0.005720 0.180617
v 0.013113 -0.000000 0.180617
v -0.013113 -0.000000 0.180617
v -0.004982 0.000000 -0.104625
v -0.004982 0.005477 -0.104625
v -0.002426 0.036044 -0.184732
v -0.002426 0.006227 -0.173170
v -0.038877 -0.016958 0.127148
v 0.038877 -0.016958 0.127148
v 0.013113 -0.005720 0.180617
v -0.013113 -0.005720 0.180617
v 0.038877 -0.000000 0.127148
v 0.002426 0.036044 -0.184732
v 0.002426 0.006227 -0.173170
v 0.004982 0.000000 -0.104625
v 0.004982 0.005477 -0.104625
v 0.038877 0.016958 0.011635
v 0.038877 -0.000000 0.011635
v -0.004982 -0.005477 -0.104625
v 0.004982 -0.005477 -0.104625
v 0.038877 -0.012370 0.011635
v -0.038877 -0.012370 0.011635
v -0.038877 -0.000000 0.127148
v -0.038877 0.016958 0.011635
v -0.038877 -0.000000 0.011635
v -0.002426 -0.036044 -0.184732
v 0.002426 -0.036044 -0.184732
v 0.000000 0.018952 0.141547
v 0.000000 0.006392 0.201302
v 0.000000 -0.000000 0.201302
v 0.000000 -0.018952 0.141547
v 0.000000 -0.006392 0.201302
v 0.000000 0.006227 -0.195436
v 0.000000 0.040282 -0.206998
v 0.000000 -0.006120 -0.117473
v 0.000000 -0.014364 0.012454
v 0.000000 0.006120 -0.117473
v 0.000000 0.018952 0.012454
v 0.000000 -0.040282 -0.206998
v 0.006557 0.006056 0.190960
v 0.019438 -0.017955 0.134348
v 0.001213 0.006227 -0.184303
v 0.001213 0.038163 -0.195865
v 0.002491 -0.005798 -0.111049
v 0.002491 0.005799 -0.111049
v 0.001213 -0.038163 -0.195865
v 0.019438 0.017955 0.134348
v 0.006557 -0.000000 0.190960
v 0.006557 -0.006056 0.190960
v 0.019438 -0.013367 0.012045
v 0.007934 0.017955 0.012045
v -0.019438 0.017955 0.134348
v -0.006557 -0.000000 0.190960
v -0.006557 -0.006056 0.190960
v -0.019438 -0.013367 0.012045
v -0.009171 0.017955 0.012045
v -0.006557 0.006056 0.190960
v -0.019438 -0.017955 0.134348
v -0.001213 0.006227 -0.184303
v -0.001213 0.038163 -0.195865
v -0.002491 -0.005798 -0.111049
v -0.002491 0.005799 -0.111049
v -0.001213 -0.038163 -0.195865
v -0.126917 -0.007155 -0.028285
v -0.038877 0.016958 0.069392
v 0.121495 -0.007086 -0.032807
v 0.038877 0.016958 0.069392
v -0.038877 -0.016958 0.069392
v 0.038877 -0.016958 0.069392
v 0.000000 0.078461 -0.017564
v 0.000000 -0.018952 0.077001
v 0.007934 0.017955 0.073196
v 0.019438 -0.017955 0.073196
v -0.019438 -0.017955 0.073196
v -0.009171 0.017955 0.073196
v 0.000000 0.018952 0.109274
v 0.000000 -0.018952 0.109274
v 0.007934 0.017955 0.103772
v 0.019438 -0.017955 0.103772
v -0.019438 -0.017955 0.103772
v -0.009171 0.017955 0.103772
v -0.038877 -0.000000 0.098270
v -0.038877 0.016958 0.098270
v 0.038877 -0.000000 0.098270
v 0.038877 0.016958 0.098270
v -0.038877 -0.016958 0.098270
v 0.038877 -0.016958 0.098270
v -0.038877 -0.002288 0.011635
v -0.004982 -0.001135 -0.104625
v 0.002426 -0.010192 -0.173170
v 0.004982 -0.001135 -0.104625
v 0.038877 -0.002288 0.011635
v 0.038877 -0.002288 0.127148
v -0.013113 -0.001257 0.180617
v -0.038877 -0.002288 0.127148
v -0.002426 -0.010192 -0.173170
v 0.013113 -0.001257 0.180617
v 0.000000 -0.001593 0.201302
v 0.000000 -0.012311 -0.195436
v 0.006557 -0.001425 0.190960
v 0.001213 -0.011252 -0.184303
v -0.001213 -0.011252 -0.184303
v -0.006557 -0.001425 0.190960
v -0.038877 -0.002288 0.069392
v 0.038877 -0.002288 0.069392
v -0.038877 -0.002288 0.098270
v 0.038877 -0.002288 0.098270
v 0.013113 0.000850 0.180617
v -0.013113 0.000850 0.180617
v -0.004982 0.000814 -0.104625
v -0.002426 0.011584 -0.173170
v 0.038877 0.002521 0.127148
v 0.002426 0.011584 -0.173170
v 0.004982 0.000814 -0.104625
v 0.038877 0.002521 0.011635
v -0.038877 0.002521 0.127148
v -0.038877 0.002521 0.011635
v 0.000000 0.012214 -0.195436
v 0.000000 0.000950 0.201302
v 0.006557 0.000900 0.190960
v 0.001213 0.011899 -0.184303
v -0.001213 0.011899 -0.184303
v -0.006557 0.000900 0.190960
v 0.038877 0.002521 0.069392
v -0.038877 0.002521 0.069392
v -0.038877 0.002521 0.098270
v 0.038877 0.002521 0.098270
vt 0.812500 0.687500
vt 0.875000 0.687500
vt 0.875000 0.750000
vt 0.812500 0.750000
vt 0.518546 0.937500
vt 0.625000 0.937500
vt 0.625000 1.000000
vt 0.519180 1.000000
vt 0.518579 0.187500
vt 0.625000 0.187500
vt 0.625000 0.250000
vt 0.518579 0.250000
vt 0.312500 0.687500
vt 0.375000 0.687500
vt 0.375000 0.750000
vt 0.312500 0.750000
vt 0.518579 0.687500
vt 0.625000 0.687500
vt 0.625000 0.750000
vt 0.518962 0.750000
vt 0.518579 0.437500
vt 0.625000 0.437500
vt 0.625000 0.500000
vt 0.518579 0.500000
vt 0.518579 0.562500
vt 0.625000 0.562500
vt 0.625000 0.625000
vt 0.518579 0.625000
vt 0.312500 0.562500
vt 0.375000 0.562500
vt 0.375000 0.625000
vt 0.312500 0.625000
vt 0.518579 0.093750
vt 0.625000 0.093750
vt 0.625000 0.125000
vt 0.518579 0.125000
vt 0.812500 0.562500
vt 0.875000 0.562500
vt 0.875000 0.625000
vt 0.812500 0.625000
vt 0.518579 0.000000
vt 0.625000 0.000000
vt 0.625000 0.062500
vt 0.518579 0.062500
vt 0.518579 0.671875
vt 0.625000 0.671875
vt 0.312500 0.671875
vt 0.375000 0.671875
vt 0.812500 0.671875
vt 0.875000 0.671875
vt 0.812500 0.500000
vt 0.875000 0.500000
vt 0.312500 0.500000
vt 0.375000 0.500000
vt 0.437500 0.125000
vt 0.500000 0.125000
vt 0.500000 0.187500
vt 0.437500 0.187500
vt 0.437500 0.500000
vt 0.500000 0.500000
vt 0.500000 0.562500
vt 0.437500 0.562500
vt 0.437500 0.671875
vt 0.500000 0.671875
vt 0.500000 0.687500
vt 0.437500 0.687500
vt 0.437500 0.000000
vt 0.500000 0.000000
vt 0.500000 0.062500
vt 0.437500 0.062500
vt 0.437500 0.093750
vt 0.500000 0.093750
vt 0.500000 0.625000
vt 0.437500 0.625000
vt 0.437500 0.437500
vt 0.500000 0.437500
vt 0.500000 0.750000
vt 0.437500 0.750000
vt 0.500000 0.250000
vt 0.437500 0.250000
vt 0.437500 0.937500
vt 0.500000 0.937500
vt 0.500000 1.000000
vt 0.437500 1.000000
vt 0.437500 0.812500
vt 0.500000 0.812500
vt 0.500000 0.875000
vt 0.437500 0.875000
vt 0.437500 0.312500
vt 0.500000 0.312500
vt 0.500000 0.375000
vt 0.437500 0.375000
vt 0.187500 0.500000
vt 0.250000 0.500000
vt 0.250000 0.562500
vt 0.187500 0.562500
vt 0.687500 0.500000
vt 0.750000 0.500000
vt 0.750000 0.562500
vt 0.687500 0.562500
vt 0.687500 0.671875
vt 0.750000 0.671875
vt 0.750000 0.687500
vt 0.687500 0.687500
vt 0.187500 0.671875
vt 0.250000 0.671875
vt 0.250000 0.687500
vt 0.187500 0.687500
vt 0.750000 0.625000
vt 0.687500 0.625000
vt 0.250000 0.625000
vt 0.187500 0.625000
vt 0.518579 0.312500
vt 0.625000 0.312500
vt 0.625000 0.375000
vt 0.517614 0.375000
vt 0.250000 0.750000
vt 0.187500 0.750000
vt 0.518546 0.812500
vt 0.625000 0.812500
vt 0.625000 0.875000
vt 0.517951 0.875000
vt 0.750000 0.750000
vt 0.687500 0.750000
vt 0.125000 0.687500
vt 0.125000 0.750000
vt 0.125000 0.562500
vt 0.125000 0.625000
vt 0.125000 0.671875
vt 0.125000 0.500000
vt 0.812500 0.656250
vt 0.750000 0.656250
vt 0.187500 0.656250
vt 0.125000 0.656250
vt 0.312500 0.656250
vt 0.250000 0.656250
vt 0.687500 0.656250
vt 0.625000 0.656250
vt 0.437500 0.078125
vt 0.500000 0.078125
vt 0.500000 0.656250
vt 0.437500 0.656250
vt 0.875000 0.656250
vt 0.375000 0.656250
vt 0.518579 0.656250
vt 0.518579 0.078125
vt 0.625000 0.078125
vt 0.375000 0.062500
vt 0.375000 0.078125
vt 0.375000 0.093750
vt 0.375000 0.875000
vt 0.375000 0.937500
vt 0.375000 0.250000
vt 0.375000 0.312500
vt 0.375000 0.375000
vt 0.375000 0.437500
vt 0.375000 0.812500
vt 0.375000 1.000000
vt 0.375000 0.187500
vt 0.375000 0.125000
vt 0.375000 0.000000
vn -0.2240 0.9391 0.2605
vn -0.2356 0.9311 0.2784
vn -0.2040 0.9516 0.2300
vn -0.8446 0.0000 0.5354
vn -0.9993 -0.0069 -0.0379
vn -0.9991 -0.0153 -0.0386
vn -0.9992 -0.0093 -0.0381
vn 0.2240 -0.9391 0.2605
vn 0.2356 -0.9311 0.2784
vn 0.2040 -0.9516 0.2300
vn 0.9009 0.0000 0.4341
vn 0.9935 -0.0253 -0.1110
vn 0.9923 -0.0494 -0.1135
vn 0.9922 -0.0519 -0.1138
vn 0.9936 -0.0212 -0.1106
vn 0.9600 -0.0000 -0.2799
vn 0.0785 -0.9946 -0.0682
vn 0.0809 -0.9937 -0.0772
vn 0.0797 -0.9942 -0.0727
vn -0.7743 0.6318 0.0354
vn -1.0000 0.0000 0.0000
vn -0.7381 0.6740 -0.0294
vn -0.1520 0.9831 -0.1021
vn -0.0609 0.9923 -0.1083
vn -0.1116 0.9882 -0.1050
vn -0.9009 0.0000 0.4341
vn 0.9582 0.2850 0.0249
vn 1.0000 0.0000 0.0000
vn 0.0512 -0.9987 -0.0000
vn -0.3451 0.9360 0.0695
vn -0.0359 0.9994 -0.0030
vn -0.0388 0.9992 -0.0067
vn -0.0521 0.9986 -0.0087
vn 0.7444 0.6217 0.2435
vn 0.7669 0.5935 0.2443
vn 0.7634 0.5980 0.2442
vn -0.7444 -0.6217 0.2435
vn -0.7669 -0.5935 0.2443
vn -0.7634 -0.5980 0.2442
vn 0.9992 -0.0093 -0.0381
vn 0.9991 -0.0153 -0.0386
vn 0.9993 -0.0069 -0.0379
vn -0.9600 -0.0000 -0.2799
vn 0.9992 0.0087 -0.0379
vn 0.9993 0.0000 -0.0373
vn 0.9993 0.0067 -0.0377
vn 0.9510 -0.3084 0.0244
vn 0.9975 0.0121 0.0702
vn -0.7178 -0.6953 0.0358
vn -0.9530 -0.0787 -0.2925
vn -0.1924 0.7288 -0.6572
vn -0.6808 -0.7319 -0.0290
vn 0.9934 0.0249 -0.1118
vn 0.9941 0.0000 -0.1083
vn 0.9936 0.0196 -0.1111
vn -0.9993 0.0067 -0.0377
vn -0.9993 0.0000 -0.0373
vn -0.9992 0.0087 -0.0379
vn 0.8446 0.0000 0.5354
vn 0.0000 0.0000 1.0000
vn -0.9934 0.0249 -0.1118
vn -0.9941 0.0000 -0.1083
vn 0.0000 0.0000 -1.0000
vn 0.0000 0.2437 -0.9698
vn 0.7444 -0.6217 0.2435
vn 0.0000 -0.9316 0.3636
vn 0.7634 -0.5980 0.2442
vn -0.7444 0.6217 0.2435
vn 0.0000 0.9316 0.3636
vn -0.7634 0.5980 0.2442
vn 0.3733 0.9254 0.0649
vn 0.0008 0.9977 0.0680
vn 0.0011 0.9999 -0.0114
vn 0.0523 0.9986 -0.0098
vn -0.0512 -0.9987 -0.0000
vn 0.0000 -1.0000 -0.0000
vn 0.1679 0.9806 -0.1014
vn 0.0094 0.9947 -0.1024
vn 0.0089 0.9947 -0.1024
vn 0.1202 0.9873 -0.1043
vn -0.0785 -0.9946 -0.0682
vn 0.0000 -0.9977 -0.0676
vn -0.0797 -0.9942 -0.0727
vn -0.9935 -0.0253 -0.1110
vn -0.9923 -0.0494 -0.1135
vn 0.0000 -0.3916 -0.9201
vn 0.0000 -0.2374 -0.9714
vn -0.2240 -0.9391 0.2605
vn 0.0000 -0.9739 0.2272
vn -0.2040 -0.9516 0.2300
vn 0.2240 0.9391 0.2605
vn 0.0000 0.9739 0.2272
vn 0.2040 0.9516 0.2300
vn 0.2356 0.9311 0.2784
vn 0.0585 0.9925 -0.1076
vn 0.0346 0.9994 -0.0032
vn 0.0377 0.9993 -0.0073
vn -0.7669 0.5935 0.2443
vn -0.2356 -0.9311 0.2784
vn -0.9936 -0.0212 -0.1106
vn -0.9922 -0.0519 -0.1138
vn -0.0809 -0.9937 -0.0772
vn 0.7669 -0.5935 0.2443
vn -0.9936 0.0196 -0.1111
vn 0.0337 0.4633 -0.8856
vn -0.6722 0.7340 -0.0972
vn -0.5267 0.8465 0.0777
vn 0.0066 0.9488 -0.3159
vn -0.0427 -0.9961 -0.0769
vn -0.0430 -0.9963 -0.0748
vn -0.0471 -0.9982 -0.0373
vn -0.0465 -0.9980 -0.0432
vn 0.0000 -0.9973 -0.0728
vn 0.0430 -0.9963 -0.0748
vn 0.0471 -0.9982 -0.0373
vn 0.0000 -0.9995 -0.0319
vn 0.0322 0.9995 0.0000
vn 0.6756 0.7323 -0.0846
vn 0.5501 0.8320 0.0715
vn -0.9506 -0.3093 0.0245
vn -0.9974 0.0143 0.0712
vn 0.6786 -0.7340 -0.0291
vn 0.1685 0.7395 -0.6518
vn 0.9499 -0.0826 -0.3015
vn 0.7206 -0.6923 0.0370
vn -0.0335 0.9994 0.0000
vn 0.0427 -0.9961 -0.0769
vn 0.0465 -0.9980 -0.0432
vn 0.7390 0.6730 -0.0294
vn 0.7798 0.6250 0.0363
vn -0.9574 0.2876 0.0251
vn -0.9920 0.0505 -0.1153
vn -0.9921 0.0491 -0.1151
vn 0.0000 0.3883 -0.9215
vn 0.9921 0.0491 -0.1151
vn -0.9992 0.0147 -0.0383
vn 0.9920 0.0505 -0.1153
vn 0.9992 0.0147 -0.0383
usemtl Material.001
s 1
f 55/1/1 2/2/2 3/3/2 60/4/3
f 126/5/4 60/6/4 3/7/4 112/8/4
f 113/9/5 8/10/6 9/11/6 114/12/7
f 44/13/8 12/14/9 13/15/9 52/16/10
f 115/17/11 1/18/11 4/19/11 111/20/11
f 124/21/12 46/22/13 16/23/14 116/24/15
f 117/25/16 19/26/16 20/27/16 118/28/16
f 47/29/17 23/30/18 24/31/18 53/32/19
f 128/33/20 68/34/21 27/35/21 120/36/22
f 65/37/23 8/38/24 27/39/24 59/40/25
f 112/41/26 3/42/26 2/43/26 119/44/26
f 130/45/27 88/46/28 1/18/28 115/17/28
f 82/47/29 90/48/29 12/14/29 44/13/29
f 84/49/30 86/50/31 2/2/32 55/1/33
f 63/51/34 9/52/35 8/38/35 65/37/36
f 49/53/37 30/54/38 23/30/38 47/29/39
f 116/24/40 16/23/41 19/26/41 117/25/42
f 120/36/43 27/35/43 8/10/43 113/9/43
f 91/55/43 28/56/43 7/57/43 92/58/43
f 93/59/44 17/60/45 18/61/45 94/62/46
f 110/63/47 87/64/48 15/65/28 96/66/28
f 97/67/26 6/68/26 26/69/26 98/70/26
f 107/71/49 67/72/50 28/56/51 91/55/52
f 94/62/16 18/61/16 21/73/16 95/74/16
f 104/75/53 45/76/54 17/60/54 93/59/55
f 96/66/11 15/65/11 5/77/11 100/78/11
f 92/58/56 7/57/57 10/79/57 99/80/58
f 106/81/4 56/82/4 6/83/4 97/84/4
f 103/85/59 51/86/59 33/87/60 101/88/60
f 105/89/61 62/90/62 36/91/63 102/92/64
f 66/93/65 42/94/66 38/95/66 64/96/67
f 46/97/68 37/98/69 40/99/69 48/100/70
f 81/101/71 79/102/72 31/103/73 50/104/74
f 83/105/75 80/106/76 34/107/76 61/108/75
f 48/100/77 40/99/78 41/109/79 54/110/80
f 64/96/81 38/95/82 39/111/82 58/112/83
f 125/113/84 63/114/85 37/115/86 121/116/87
f 61/108/88 34/107/89 35/117/89 57/118/90
f 123/119/59 43/120/59 32/121/60 122/122/60
f 50/104/91 31/103/92 32/123/92 43/124/93
f 1/18/94 50/104/91 43/124/93 4/19/94
f 111/20/59 4/19/59 43/120/59 123/119/59
f 19/26/95 48/100/77 54/110/80 20/27/95
f 88/46/96 81/101/71 50/104/74 1/18/97
f 16/23/98 46/97/68 48/100/70 19/26/98
f 100/78/59 5/77/59 51/86/59 103/85/59
f 102/92/64 36/91/63 45/76/54 104/75/53
f 42/94/66 49/53/37 47/29/39 38/95/66
f 80/106/76 82/47/29 44/13/29 34/107/76
f 38/95/82 47/29/17 53/32/19 39/111/82
f 121/116/87 37/115/86 46/22/13 124/21/12
f 34/107/89 44/13/8 52/16/10 35/117/89
f 11/125/99 61/108/88 57/118/90 14/126/99
f 114/12/100 9/11/101 63/114/85 125/113/84
f 22/127/102 64/96/81 58/112/83 25/128/102
f 89/129/75 83/105/75 61/108/75 11/125/75
f 29/130/103 66/93/65 64/96/67 22/127/103
f 99/80/104 10/79/62 62/90/62 105/89/61
f 101/88/60 33/87/60 56/82/4 106/81/4
f 37/98/69 63/51/34 65/37/36 40/99/69
f 79/102/72 84/49/30 55/1/33 31/103/73
f 40/99/78 65/37/23 59/40/25 41/109/79
f 122/122/60 32/121/60 60/6/4 126/5/4
f 31/103/92 55/1/1 60/4/3 32/123/92
f 41/109/105 59/40/106 78/131/107 73/132/108
f 25/128/109 58/112/110 77/133/111 71/134/112
f 39/111/113 53/32/114 76/135/115 74/136/116
f 20/27/117 54/110/118 75/137/119 70/138/117
f 58/112/110 39/111/113 74/136/116 77/133/111
f 54/110/118 41/109/105 73/132/108 75/137/119
f 109/139/120 85/140/121 67/72/50 107/71/49
f 95/74/122 21/73/123 69/141/124 108/142/125
f 59/40/106 27/39/126 68/143/126 78/131/107
f 53/32/114 24/31/127 72/144/128 76/135/115
f 118/28/129 20/27/28 70/138/28 127/145/130
f 129/146/131 86/147/21 68/34/21 128/33/20
f 119/44/21 2/43/21 86/147/21 129/146/131
f 98/70/21 26/69/21 85/140/121 109/139/120
f 73/132/108 78/131/107 84/49/30 79/102/72
f 71/134/112 77/133/111 83/105/75 89/129/75
f 74/136/116 76/135/115 82/47/29 80/106/76
f 70/138/117 75/137/119 81/101/71 88/46/96
f 77/133/111 74/136/116 80/106/76 83/105/75
f 75/137/119 73/132/108 79/102/72 81/101/71
f 108/142/125 69/141/124 87/64/48 110/63/47
f 78/131/107 68/143/126 86/50/31 84/49/30
f 76/135/115 72/144/128 90/48/29 82/47/29
f 127/145/130 70/138/28 88/46/28 130/45/27
f 72/144/28 108/142/125 110/63/47 90/48/28
f 11/148/21 98/70/21 109/139/120 89/149/21
f 24/31/28 95/74/122 108/142/125 72/144/28
f 89/149/21 109/139/120 107/71/49 71/150/21
f 35/151/60 101/88/60 106/81/4 57/152/4
f 29/153/132 99/80/104 105/89/61 66/154/133
f 42/155/134 102/92/64 104/75/53 49/156/135
f 13/15/59 100/78/59 103/85/59 52/157/59
f 66/154/133 105/89/61 102/92/64 42/155/134
f 52/157/59 103/85/59 101/88/60 35/151/60
f 57/152/4 106/81/4 97/84/4 14/158/4
f 22/159/136 92/58/56 99/80/58 29/153/136
f 12/14/11 96/66/11 100/78/11 13/15/11
f 49/156/135 104/75/53 93/59/55 30/54/137
f 23/30/16 94/62/16 95/74/16 24/31/16
f 71/150/21 107/71/49 91/55/52 25/160/21
f 14/161/26 97/67/26 98/70/26 11/148/26
f 90/48/28 110/63/47 96/66/28 12/14/28
f 30/54/138 93/59/44 94/62/46 23/30/138
f 25/160/43 91/55/43 92/58/43 22/159/43
f 69/141/124 127/145/130 130/45/27 87/64/48
f 26/69/21 119/44/21 129/146/131 85/140/121
f 85/140/121 129/146/131 128/33/20 67/72/50
f 21/73/123 118/28/129 127/145/130 69/141/124
f 33/87/60 122/122/60 126/5/4 56/82/4
f 10/79/62 114/12/100 125/113/84 62/90/62
f 36/91/63 121/116/87 124/21/12 45/76/54
f 5/77/59 111/20/59 123/119/59 51/86/59
f 51/86/59 123/119/59 122/122/60 33/87/60
f 62/90/62 125/113/84 121/116/87 36/91/63
f 28/56/43 120/36/43 113/9/43 7/57/43
f 17/60/45 116/24/40 117/25/42 18/61/45
f 87/64/48 130/45/27 115/17/28 15/65/28
f 6/68/26 112/41/26 119/44/26 26/69/26
f 67/72/50 128/33/20 120/36/22 28/56/51
f 18/61/16 117/25/16 118/28/16 21/73/16
f 45/76/54 124/21/12 116/24/15 17/60/54
f 15/65/11 115/17/11 111/20/11 5/77/11
f 7/57/57 113/9/5 114/12/7 10/79/57
f 56/82/4 126/5/4 112/8/4 6/83/4
