# Blender v2.81 (sub 16) OBJ File: 'fish_base.blend'
# www.blender.org
mtllib fish_base.mtl
o Cube
v 0.008374 0.082631 -0.184732
v 0.008374 -0.082631 -0.184732
v 0.013113 0.013113 0.180617
v 0.013113 -0.013113 0.180617
v -0.008374 0.082631 -0.184732
v -0.008374 -0.082631 -0.184732
v -0.013113 0.013113 0.180617
v -0.013113 -0.013113 0.180617
v -0.038877 -0.038877 0.011635
v 0.038877 0.038877 0.011635
v -0.038877 0.038877 0.011635
v 0.038877 -0.038877 0.011635
v -0.038877 -0.038877 0.127148
v 0.038877 0.038877 0.127148
v -0.038877 0.038877 0.127148
v 0.038877 -0.038877 0.127148
v -0.012555 0.012555 -0.104625
v 0.012555 -0.012555 -0.104625
v -0.012555 -0.012555 -0.104625
v 0.012555 0.012555 -0.104625
v 0.008374 0.000000 -0.184732
v -0.013113 0.000000 0.180617
v 0.013113 0.000000 0.180617
v -0.008374 0.000000 -0.184732
v 0.038877 0.000000 0.011635
v -0.038877 0.000000 0.011635
v -0.038877 0.000000 0.127148
v 0.038877 0.000000 0.127148
v 0.012555 0.000000 -0.104625
v -0.012555 0.000000 -0.104625
vt 0.625000 0.687500
vt 0.875000 0.687500
vt 0.875000 0.750000
vt 0.625000 0.750000
vt 0.500000 0.750000
vt 0.625000 1.000000
vt 0.500000 1.000000
vt 0.500000 0.187500
vt 0.625000 0.187500
vt 0.625000 0.250000
vt 0.500000 0.250000
vt 0.125000 0.687500
vt 0.375000 0.687500
vt 0.375000 0.750000
vt 0.125000 0.750000
vt 0.500000 0.687500
vt 0.625000 0.500000
vt 0.500000 0.500000
vt 0.500000 0.562500
vt 0.625000 0.562500
vt 0.625000 0.625000
vt 0.500000 0.625000
vt 0.125000 0.562500
vt 0.375000 0.562500
vt 0.375000 0.625000
vt 0.125000 0.625000
vt 0.500000 0.062500
vt 0.625000 0.062500
vt 0.625000 0.125000
vt 0.500000 0.125000
vt 0.875000 0.562500
vt 0.875000 0.625000
vt 0.500000 0.000000
vt 0.625000 0.000000
vt 0.875000 0.500000
vt 0.125000 0.500000
vt 0.375000 0.500000
vt 0.375000 0.125000
vt 0.375000 0.187500
vt 0.375000 0.000000
vt 0.375000 0.062500
vt 0.375000 0.250000
vt 0.375000 1.000000
vn 0.0000 0.9009 0.4341
vn 0.0000 0.0000 1.0000
vn -0.9986 0.0000 -0.0521
vn 0.0000 -0.9009 0.4341
vn 0.9009 0.0000 0.4341
vn 0.0000 0.0000 -1.0000
vn 0.9753 0.0000 -0.2208
vn 0.0000 -0.9753 -0.2208
vn -1.0000 0.0000 0.0000
vn 0.0000 0.9753 -0.2208
vn -0.9009 0.0000 0.4341
vn 1.0000 0.0000 0.0000
vn 0.0000 -1.0000 0.0000
vn 0.0000 1.0000 0.0000
vn 0.0000 0.7527 0.6584
vn 0.0000 -0.7527 0.6584
vn 0.9986 0.0000 -0.0521
vn -0.9753 0.0000 -0.2208
usemtl Material
s off
f 14/1/1 15/2/1 7/3/1 3/4/1
f 23/5/2 3/4/2 7/6/2 22/7/2
f 30/8/3 17/9/3 5/10/3 24/11/3
f 13/12/4 16/13/4 4/14/4 8/15/4
f 28/16/5 14/1/5 3/4/5 23/5/5
f 24/11/6 5/10/6 1/17/6 21/18/6
f 29/19/7 20/20/7 10/21/7 25/22/7
f 19/23/8 18/24/8 12/25/8 9/26/8
f 27/27/9 15/28/9 11/29/9 26/30/9
f 20/20/10 17/31/10 11/32/10 10/21/10
f 22/33/11 7/34/11 15/28/11 27/27/11
f 25/22/12 10/21/12 14/1/12 28/16/12
f 9/26/13 12/25/13 16/13/13 13/12/13
f 10/21/14 11/32/14 15/2/14 14/1/14
f 1/17/15 5/35/15 17/31/15 20/20/15
f 6/36/16 2/37/16 18/24/16 19/23/16
f 21/18/17 1/17/17 20/20/17 29/19/17
f 26/30/18 11/29/18 17/9/18 30/8/18
f 9/38/18 26/30/18 30/8/18 19/39/18
f 2/37/17 21/18/17 29/19/17 18/24/17
f 12/25/12 25/22/12 28/16/12 16/13/12
f 8/40/11 22/33/11 27/27/11 13/41/11
f 13/41/9 27/27/9 26/30/9 9/38/9
f 18/24/7 29/19/7 25/22/7 12/25/7
f 6/42/6 24/11/6 21/18/6 2/37/6
f 16/13/5 28/16/5 23/5/5 4/14/5
f 19/39/3 30/8/3 24/11/3 6/42/3
f 4/14/2 23/5/2 22/7/2 8/43/2
