# Blender v2.81 (sub 16) OBJ File: 'fish_var4.blend'
# www.blender.org
mtllib fish_var4.mtl
o Cube.001
v 0.038877 0.016958 0.127148
v -0.038877 0.016958 0.127148
v -0.013113 0.005720 0.180617
v 0.013113 0.005720 0.180617
v 0.013113 -0.000000 0.180617
v -0.013113 -0.000000 0.180617
v -0.004982 0.000000 -0.104625
v -0.004982 0.005477 -0.104625
v -0.002426 0.036044 -0.184732
v -0.002426 0.000000 -0.184732
v -0.038722 -0.038466 0.121721
v 0.038722 -0.033536 0.121721
v 0.013113 -0.005720 0.180617
v -0.013113 -0.005720 0.180617
v 0.038877 -0.000000 0.127148
v 0.002426 0.036044 -0.184732
v 0.002426 0.000000 -0.184732
v 0.004982 0.000000 -0.104625
v 0.004982 0.005477 -0.104625
v 0.038877 0.016958 0.011635
v 0.038877 -0.000000 0.011635
v -0.004982 -0.005477 -0.104625
v 0.004982 -0.005477 -0.104625
v 0.038722 -0.028948 0.006208
v -0.038722 -0.033877 0.006208
v -0.038877 -0.000000 0.127148
v -0.038877 0.016958 0.011635
v -0.038877 -0.000000 0.011635
v -0.002426 -0.036044 -0.184732
v 0.002426 -0.036044 -0.184732
v 0.000000 0.018952 0.141547
v 0.000000 0.006392 0.201302
v 0.000000 -0.000000 0.201302
v 0.000000 -0.057063 0.136121
v 0.000000 -0.006392 0.201302
v 0.000000 0.000000 -0.206998
v 0.000000 0.040282 -0.206998
v 0.000000 -0.006120 -0.117473
v 0.000000 -0.052475 0.007028
v 0.000000 0.006120 -0.117473
v 0.000000 0.018952 0.012454
v 0.000000 -0.040282 -0.206998
v 0.006557 0.006056 0.190960
v 0.019361 -0.056066 0.128921
v 0.001213 0.000000 -0.195865
v 0.001213 0.038163 -0.195865
v 0.002491 -0.005798 -0.111049
v 0.002491 0.005799 -0.111049
v 0.001213 -0.038163 -0.195865
v 0.019438 0.017955 0.134348
v 0.006557 -0.000000 0.190960
v 0.006557 -0.006056 0.190960
v 0.019361 -0.051478 0.006618
v 0.007934 0.017955 0.012045
v -0.019438 0.017955 0.134348
v -0.006557 -0.000000 0.190960
v -0.006557 -0.006056 0.190960
v -0.019361 -0.051478 0.006618
v -0.009171 0.017955 0.012045
v -0.006557 0.006056 0.190960
v -0.019361 -0.056066 0.128921
v -0.001213 0.000000 -0.195865
v -0.001213 0.038163 -0.195865
v -0.002491 -0.005798 -0.111049
v -0.002491 0.005799 -0.111049
v -0.001213 -0.038163 -0.195865
v -0.126917 -0.007155 -0.028285
v -0.038877 0.016958 0.069392
v 0.121495 -0.007086 -0.032807
v 0.038877 0.016958 0.069392
v -0.038722 -0.038466 0.063965
v 0.038722 -0.033536 0.063965
v 0.000000 0.078461 -0.017564
v 0.000000 -0.057063 0.071574
v 0.007934 0.017955 0.073196
v 0.019361 -0.056066 0.067769
v -0.019361 -0.056066 0.067769
v -0.009171 0.017955 0.073196
v 0.000000 0.018952 0.109274
v 0.000000 -0.057063 0.103847
v 0.007934 0.017955 0.103772
v 0.019361 -0.056066 0.098345
v -0.019361 -0.056066 0.098345
v -0.009171 0.017955 0.103772
v -0.038877 -0.000000 0.098270
v -0.038877 0.016958 0.098270
v 0.038877 -0.000000 0.098270
v 0.038877 0.016958 0.098270
v -0.038722 -0.038466 0.092843
v 0.038722 -0.033536 0.092843
v -0.038877 -0.002288 0.011635
v -0.004982 -0.001135 -0.104625
v 0.002426 -0.016419 -0.184732
v 0.004982 -0.001135 -0.104625
v 0.038877 -0.002288 0.011635
v 0.038877 -0.002288 0.127148
v -0.013113 -0.001257 0.180617
v -0.038877 -0.002288 0.127148
v -0.002426 -0.016419 -0.184732
v 0.013113 -0.001257 0.180617
v 0.000000 -0.001593 0.201302
v 0.000000 -0.018538 -0.206998
v 0.006557 -0.001425 0.190960
v 0.001213 -0.017478 -0.195865
v -0.001213 -0.017478 -0.195865
v -0.006557 -0.001425 0.190960
v -0.038877 -0.002288 0.069392
v 0.038877 -0.002288 0.069392
v -0.038877 -0.002288 0.098270
v 0.038877 -0.002288 0.098270
v 0.013113 0.000850 0.180617
v -0.013113 0.000850 0.180617
v -0.004982 0.000814 -0.104625
v -0.002426 0.005357 -0.184732
v 0.038877 0.002521 0.127148
v 0.002426 0.005357 -0.184732
v 0.004982 0.000814 -0.104625
v 0.038877 0.002521 0.011635
v -0.038877 0.002521 0.127148
v -0.038877 0.002521 0.011635
v 0.000000 0.005987 -0.206998
v 0.000000 0.000950 0.201302
v 0.006557 0.000900 0.190960
v 0.001213 0.005672 -0.195865
v -0.001213 0.005672 -0.195865
v -0.006557 0.000900 0.190960
v 0.038877 0.002521 0.069392
v -0.038877 0.002521 0.069392
v -0.038877 0.002521 0.098270
v 0.038877 0.002521 0.098270
vt 0.812500 0.687500
vt 0.875000 0.687500
vt 0.875000 0.750000
vt 0.812500 0.750000
vt 0.518546 0.937500
vt 0.625000 0.937500
vt 0.625000 1.000000
vt 0.519180 1.000000
vt 0.518579 0.187500
vt 0.625000 0.187500
vt 0.625000 0.250000
vt 0.518579 0.250000
vt 0.312500 0.687500
vt 0.375000 0.687500
vt 0.375000 0.750000
vt 0.312500 0.750000
vt 0.518579 0.687500
vt 0.625000 0.687500
vt 0.625000 0.750000
vt 0.518962 0.750000
vt 0.518579 0.437500
vt 0.625000 0.437500
vt 0.625000 0.500000
vt 0.518579 0.500000
vt 0.518579 0.562500
vt 0.625000 0.562500
vt 0.625000 0.625000
vt 0.518579 0.625000
vt 0.312500 0.562500
vt 0.375000 0.562500
vt 0.375000 0.625000
vt 0.312500 0.625000
vt 0.518579 0.093750
vt 0.625000 0.093750
vt 0.625000 0.125000
vt 0.518579 0.125000
vt 0.812500 0.562500
vt 0.875000 0.562500
vt 0.875000 0.625000
vt 0.812500 0.625000
vt 0.518579 0.000000
vt 0.625000 0.000000
vt 0.625000 0.062500
vt 0.518579 0.062500
vt 0.518579 0.671875
vt 0.625000 0.671875
vt 0.312500 0.671875
vt 0.375000 0.671875
vt 0.812500 0.671875
vt 0.875000 0.671875
vt 0.812500 0.500000
vt 0.875000 0.500000
vt 0.312500 0.500000
vt 0.375000 0.500000
vt 0.437500 0.125000
vt 0.500000 0.125000
vt 0.500000 0.187500
vt 0.437500 0.187500
vt 0.437500 0.500000
vt 0.500000 0.500000
vt 0.500000 0.562500
vt 0.437500 0.562500
vt 0.437500 0.671875
vt 0.500000 0.671875
vt 0.500000 0.687500
vt 0.437500 0.687500
vt 0.437500 0.000000
vt 0.500000 0.000000
vt 0.500000 0.062500
vt 0.437500 0.062500
vt 0.437500 0.093750
vt 0.500000 0.093750
vt 0.500000 0.625000
vt 0.437500 0.625000
vt 0.437500 0.437500
vt 0.500000 0.437500
vt 0.500000 0.750000
vt 0.437500 0.750000
vt 0.500000 0.250000
vt 0.437500 0.250000
vt 0.437500 0.937500
vt 0.500000 0.937500
vt 0.500000 1.000000
vt 0.437500 1.000000
vt 0.437500 0.812500
vt 0.500000 0.812500
vt 0.500000 0.875000
vt 0.437500 0.875000
vt 0.437500 0.312500
vt 0.500000 0.312500
vt 0.500000 0.375000
vt 0.437500 0.375000
vt 0.187500 0.500000
vt 0.250000 0.500000
vt 0.250000 0.562500
vt 0.187500 0.562500
vt 0.687500 0.500000
vt 0.750000 0.500000
vt 0.750000 0.562500
vt 0.687500 0.562500
vt 0.687500 0.671875
vt 0.750000 0.671875
vt 0.750000 0.687500
vt 0.687500 0.687500
vt 0.187500 0.671875
vt 0.250000 0.671875
vt 0.250000 0.687500
vt 0.187500 0.687500
vt 0.750000 0.625000
vt 0.687500 0.625000
vt 0.250000 0.625000
vt 0.187500 0.625000
vt 0.518579 0.312500
vt 0.625000 0.312500
vt 0.625000 0.375000
vt 0.517614 0.375000
vt 0.250000 0.750000
vt 0.187500 0.750000
vt 0.518546 0.812500
vt 0.625000 0.812500
vt 0.625000 0.875000
vt 0.517951 0.875000
vt 0.750000 0.750000
vt 0.687500 0.750000
vt 0.125000 0.687500
vt 0.125000 0.750000
vt 0.125000 0.562500
vt 0.125000 0.625000
vt 0.125000 0.671875
vt 0.125000 0.500000
vt 0.812500 0.656250
vt 0.750000 0.656250
vt 0.187500 0.656250
vt 0.125000 0.656250
vt 0.312500 0.656250
vt 0.250000 0.656250
vt 0.687500 0.656250
vt 0.625000 0.656250
vt 0.437500 0.078125
vt 0.500000 0.078125
vt 0.500000 0.656250
vt 0.437500 0.656250
vt 0.875000 0.656250
vt 0.375000 0.656250
vt 0.518579 0.656250
vt 0.518579 0.078125
vt 0.625000 0.078125
vt 0.375000 0.062500
vt 0.375000 0.078125
vt 0.375000 0.093750
vt 0.375000 0.875000
vt 0.375000 0.937500
vt 0.375000 0.250000
vt 0.375000 0.312500
vt 0.375000 0.375000
vt 0.375000 0.437500
vt 0.375000 0.812500
vt 0.375000 1.000000
vt 0.375000 0.187500
vt 0.375000 0.125000
vt 0.375000 0.000000
vn -0.2240 0.9391 0.2605
vn -0.2356 0.9311 0.2784
vn -0.2040 0.9516 0.2300
vn -0.8446 0.0000 0.5354
vn -0.9995 0.0000 -0.0319
vn 0.6091 -0.5626 0.5591
vn 0.7360 -0.4384 0.5159
vn 0.5142 -0.6343 0.5773
vn 0.9009 0.0000 0.4341
vn 0.9941 0.0000 -0.1083
vn 0.9600 -0.0000 -0.2799
vn 0.2463 -0.8967 -0.3677
vn 0.7225 -0.6009 -0.3419
vn 0.4528 -0.8105 -0.3717
vn -0.7743 0.6318 0.0354
vn -1.0000 0.0000 0.0000
vn -0.7381 0.6740 -0.0294
vn -0.1520 0.9831 -0.1021
vn -0.0609 0.9923 -0.1083
vn -0.1116 0.9882 -0.1050
vn -0.9009 0.0000 0.4341
vn 0.9582 0.2850 0.0249
vn 1.0000 0.0000 0.0000
vn 0.4405 -0.8977 -0.0000
vn 0.7584 -0.6518 -0.0000
vn 0.3694 -0.9293 -0.0000
vn -0.3451 0.9360 0.0695
vn -0.0359 0.9994 -0.0030
vn -0.0388 0.9992 -0.0067
vn -0.0521 0.9986 -0.0087
vn 0.7444 0.6217 0.2435
vn 0.7669 0.5935 0.2443
vn 0.7634 0.5980 0.2442
vn -0.7444 -0.6217 0.2435
vn -0.7669 -0.5935 0.2443
vn -0.7634 -0.5980 0.2442
vn 0.9995 0.0000 -0.0319
vn -0.9600 -0.0000 -0.2799
vn -0.9597 0.0182 -0.2803
vn -0.9597 0.0190 -0.2803
vn 0.9500 -0.3111 0.0244
vn 0.9975 0.0121 0.0702
vn 1.0000 -0.0023 -0.0000
vn -0.9012 -0.0301 0.4323
vn -0.9012 -0.0320 0.4322
vn -0.7163 -0.6969 0.0356
vn -0.9530 -0.0787 -0.2925
vn -0.1924 0.7288 -0.6572
vn -0.7184 -0.6950 -0.0275
vn 0.9596 0.0220 -0.2804
vn 0.9597 0.0209 -0.2804
vn 0.9012 -0.0366 0.4319
vn 0.9012 -0.0342 0.4320
vn 0.8446 0.0000 0.5354
vn 0.0000 0.0000 1.0000
vn -0.9941 0.0000 -0.1083
vn 0.0000 0.0000 -1.0000
vn 0.7444 -0.6217 0.2435
vn 0.0000 -0.9316 0.3636
vn 0.7634 -0.5980 0.2442
vn -0.7444 0.6217 0.2435
vn 0.0000 0.9316 0.3636
vn -0.7634 0.5980 0.2442
vn 0.3733 0.9254 0.0649
vn 0.0008 0.9977 0.0680
vn 0.0011 0.9999 -0.0114
vn 0.0523 0.9986 -0.0098
vn -0.3845 -0.9231 -0.0000
vn 0.0000 -1.0000 -0.0000
vn -0.3199 -0.9474 -0.0000
vn 0.1679 0.9806 -0.1014
vn 0.0094 0.9947 -0.1024
vn 0.0089 0.9947 -0.1024
vn 0.1202 0.9873 -0.1043
vn -0.2332 -0.9002 -0.3677
vn 0.0000 -0.9311 -0.3648
vn -0.4124 -0.8301 -0.3753
vn -0.5870 -0.5745 0.5705
vn 0.0000 -0.7601 0.6498
vn -0.5018 -0.6400 0.5819
vn 0.2240 0.9391 0.2605
vn 0.0000 0.9739 0.2272
vn 0.2040 0.9516 0.2300
vn 0.2356 0.9311 0.2784
vn 0.0585 0.9925 -0.1076
vn 0.0346 0.9994 -0.0032
vn 0.0377 0.9993 -0.0073
vn -0.7669 0.5935 0.2443
vn -0.6943 -0.4718 0.5434
vn -0.6488 -0.6699 -0.3609
vn -0.6727 -0.7399 -0.0000
vn 0.7669 -0.5935 0.2443
vn 0.0337 0.4633 -0.8856
vn -0.6722 0.7340 -0.0972
vn -0.5267 0.8465 0.0777
vn 0.0066 0.9488 -0.3159
vn -0.6681 -0.7418 -0.0572
vn -0.3874 -0.9193 -0.0688
vn -0.3785 -0.9249 -0.0353
vn -0.6704 -0.7413 -0.0317
vn 0.0000 -0.9973 -0.0728
vn 0.4462 -0.8925 -0.0667
vn 0.4340 -0.9003 -0.0347
vn 0.0000 -0.9995 -0.0319
vn 0.0322 0.9995 0.0000
vn 0.6756 0.7323 -0.0846
vn 0.5501 0.8320 0.0715
vn -0.9499 -0.3117 0.0245
vn -0.9974 0.0143 0.0712
vn 0.7227 -0.6906 -0.0274
vn 0.1685 0.7395 -0.6518
vn 0.9499 -0.0826 -0.3015
vn 0.7188 -0.6942 0.0369
vn -0.0335 0.9994 0.0000
vn 0.7551 -0.6536 -0.0504
vn 0.7569 -0.6530 -0.0277
vn 0.7390 0.6730 -0.0294
vn 0.7798 0.6250 0.0363
vn -0.9574 0.2876 0.0251
vn -1.0000 -0.0020 -0.0000
vn 1.0000 -0.0052 -0.0001
vn 1.0000 -0.0050 -0.0000
vn -1.0000 -0.0043 -0.0000
vn 1.0000 -0.0053 -0.0002
vn -1.0000 -0.0044 -0.0001
vn 0.9004 -0.0692 0.4294
vn 0.9588 0.0443 -0.2807
vn -1.0000 -0.0045 -0.0002
vn -0.9007 -0.0609 0.4301
vn -0.9590 0.0383 -0.2807
usemtl Material.001
s 1
f 55/1/1 2/2/2 3/3/2 60/4/3
f 126/5/4 60/6/4 3/7/4 112/8/4
f 113/9/5 8/10/5 9/11/5 114/12/5
f 44/13/6 12/14/7 13/15/7 52/16/8
f 115/17/9 1/18/9 4/19/9 111/20/9
f 124/21/10 46/22/10 16/23/10 116/24/10
f 117/25/11 19/26/11 20/27/11 118/28/11
f 47/29/12 23/30/13 24/31/13 53/32/14
f 128/33/15 68/34/16 27/35/16 120/36/17
f 65/37/18 8/38/19 27/39/19 59/40/20
f 112/41/21 3/42/21 2/43/21 119/44/21
f 130/45/22 88/46/23 1/18/23 115/17/23
f 82/47/24 90/48/25 12/14/25 44/13/26
f 84/49/27 86/50/28 2/2/29 55/1/30
f 63/51/31 9/52/32 8/38/32 65/37/33
f 49/53/34 30/54/35 23/30/35 47/29/36
f 116/24/37 16/23/37 19/26/37 117/25/37
f 120/36/38 27/35/38 8/10/38 113/9/38
f 91/55/39 28/56/38 7/57/38 92/58/40
f 93/59/37 17/60/37 18/61/37 94/62/37
f 110/63/41 87/64/42 15/65/23 96/66/43
f 97/67/44 6/68/21 26/69/21 98/70/45
f 107/71/46 67/72/47 28/56/48 91/55/49
f 94/62/50 18/61/11 21/73/11 95/74/51
f 104/75/10 45/76/10 17/60/10 93/59/10
f 96/66/52 15/65/9 5/77/9 100/78/53
f 92/58/5 7/57/5 10/79/5 99/80/5
f 106/81/4 56/82/4 6/83/4 97/84/4
f 103/85/54 51/86/54 33/87/55 101/88/55
f 105/89/56 62/90/56 36/91/57 102/92/57
f 66/93/58 42/94/59 38/95/59 64/96/60
f 46/97/61 37/98/62 40/99/62 48/100/63
f 81/101/64 79/102/65 31/103/66 50/104/67
f 83/105/68 80/106/69 34/107/69 61/108/70
f 48/100/71 40/99/72 41/109/73 54/110/74
f 64/96/75 38/95/76 39/111/76 58/112/77
f 125/113/56 63/114/56 37/115/57 121/116/57
f 61/108/78 34/107/79 35/117/79 57/118/80
f 123/119/54 43/120/54 32/121/55 122/122/55
f 50/104/81 31/103/82 32/123/82 43/124/83
f 1/18/84 50/104/81 43/124/83 4/19/84
f 111/20/54 4/19/54 43/120/54 123/119/54
f 19/26/85 48/100/71 54/110/74 20/27/85
f 88/46/86 81/101/64 50/104/67 1/18/87
f 16/23/88 46/97/61 48/100/63 19/26/88
f 100/78/54 5/77/54 51/86/54 103/85/54
f 102/92/57 36/91/57 45/76/10 104/75/10
f 42/94/59 49/53/34 47/29/36 38/95/59
f 80/106/69 82/47/24 44/13/26 34/107/69
f 38/95/76 47/29/12 53/32/14 39/111/76
f 121/116/57 37/115/57 46/22/10 124/21/10
f 34/107/79 44/13/6 52/16/8 35/117/79
f 11/125/89 61/108/78 57/118/80 14/126/89
f 114/12/56 9/11/56 63/114/56 125/113/56
f 22/127/90 64/96/75 58/112/77 25/128/90
f 89/129/91 83/105/68 61/108/70 11/125/91
f 29/130/92 66/93/58 64/96/60 22/127/92
f 99/80/56 10/79/56 62/90/56 105/89/56
f 101/88/55 33/87/55 56/82/4 106/81/4
f 37/98/62 63/51/31 65/37/33 40/99/62
f 79/102/65 84/49/27 55/1/30 31/103/66
f 40/99/72 65/37/18 59/40/20 41/109/73
f 122/122/55 32/121/55 60/6/4 126/5/4
f 31/103/82 55/1/1 60/4/3 32/123/82
f 41/109/93 59/40/94 78/131/95 73/132/96
f 25/128/97 58/112/98 77/133/99 71/134/100
f 39/111/101 53/32/102 76/135/103 74/136/104
f 20/27/105 54/110/106 75/137/107 70/138/105
f 58/112/98 39/111/101 74/136/104 77/133/99
f 54/110/106 41/109/93 73/132/96 75/137/107
f 109/139/108 85/140/109 67/72/47 107/71/46
f 95/74/110 21/73/111 69/141/112 108/142/113
f 59/40/94 27/39/114 68/143/114 78/131/95
f 53/32/102 24/31/115 72/144/116 76/135/103
f 118/28/117 20/27/23 70/138/23 127/145/118
f 129/146/119 86/147/16 68/34/16 128/33/15
f 119/44/16 2/43/16 86/147/16 129/146/119
f 98/70/120 26/69/16 85/140/109 109/139/108
f 73/132/96 78/131/95 84/49/27 79/102/65
f 71/134/100 77/133/99 83/105/68 89/129/91
f 74/136/104 76/135/103 82/47/24 80/106/69
f 70/138/105 75/137/107 81/101/64 88/46/86
f 77/133/99 74/136/104 80/106/69 83/105/68
f 75/137/107 73/132/96 79/102/65 81/101/64
f 108/142/113 69/141/112 87/64/42 110/63/41
f 78/131/95 68/143/114 86/50/28 84/49/27
f 76/135/103 72/144/116 90/48/25 82/47/24
f 127/145/118 70/138/23 88/46/23 130/45/22
f 72/144/121 108/142/113 110/63/41 90/48/122
f 11/148/123 98/70/120 109/139/108 89/149/123
f 24/31/124 95/74/110 108/142/113 72/144/121
f 89/149/123 109/139/108 107/71/46 71/150/125
f 35/151/55 101/88/55 106/81/4 57/152/4
f 29/153/56 99/80/56 105/89/56 66/154/56
f 42/155/57 102/92/57 104/75/10 49/156/10
f 13/15/54 100/78/54 103/85/54 52/157/54
f 66/154/56 105/89/56 102/92/57 42/155/57
f 52/157/54 103/85/54 101/88/55 35/151/55
f 57/152/4 106/81/4 97/84/4 14/158/4
f 22/159/5 92/58/5 99/80/5 29/153/5
f 12/14/126 96/66/52 100/78/53 13/15/126
f 49/156/10 104/75/10 93/59/10 30/54/10
f 23/30/127 94/62/50 95/74/51 24/31/127
f 71/150/125 107/71/46 91/55/49 25/160/128
f 14/161/129 97/67/44 98/70/45 11/148/129
f 90/48/122 110/63/41 96/66/43 12/14/122
f 30/54/37 93/59/37 94/62/37 23/30/37
f 25/160/130 91/55/39 92/58/40 22/159/130
f 69/141/112 127/145/118 130/45/22 87/64/42
f 26/69/16 119/44/16 129/146/119 85/140/109
f 85/140/109 129/146/119 128/33/15 67/72/47
f 21/73/111 118/28/117 127/145/118 69/141/112
f 33/87/55 122/122/55 126/5/4 56/82/4
f 10/79/56 114/12/56 125/113/56 62/90/56
f 36/91/57 121/116/57 124/21/10 45/76/10
f 5/77/54 111/20/54 123/119/54 51/86/54
f 51/86/54 123/119/54 122/122/55 33/87/55
f 62/90/56 125/113/56 121/116/57 36/91/57
f 28/56/38 120/36/38 113/9/38 7/57/38
f 17/60/37 116/24/37 117/25/37 18/61/37
f 87/64/42 130/45/22 115/17/23 15/65/23
f 6/68/21 112/41/21 119/44/21 26/69/21
f 67/72/47 128/33/15 120/36/17 28/56/48
f 18/61/11 117/25/11 118/28/11 21/73/11
f 45/76/10 124/21/10 116/24/10 17/60/10
f 15/65/9 115/17/9 111/20/9 5/77/9
f 7/57/5 113/9/5 114/12/5 10/79/5
f 56/82/4 126/5/4 112/8/4 6/83/4
