# Blender v2.81 (sub 16) OBJ File: 'jellyfish base.blend'
# www.blender.org
mtllib jellyfish base.mtl
o Cylinder
v 0.196464 -0.037385 -0.021846
v 0.082571 -0.036812 0.162307
v -0.025891 0.178856 0.092348
v -0.102065 -0.036612 0.089099
v -0.080623 -0.037032 -0.066598
v 0.033626 -0.036579 -0.136112
v 0.111710 0.174895 -0.075320
v -0.283838 -0.071405 0.057597
v 0.328816 0.121237 0.014733
v 0.144850 0.117660 0.277520
v -0.123059 0.116654 0.253295
v -0.237948 0.123568 -0.078603
v 0.094303 0.119777 -0.269298
v 0.290286 0.021225 -0.292915
v 0.444882 0.021244 0.014733
v 0.252651 0.021240 0.358048
v -0.077725 0.021225 0.395584
v -0.331568 0.021240 0.180827
v -0.335864 0.009816 -0.135782
v -0.041611 0.021244 -0.384521
v 0.358624 -0.071823 -0.086018
v 0.262903 -0.070113 0.253180
v 0.012746 -0.071704 0.335215
v -0.201634 -0.071531 0.228315
v -0.133652 -0.071676 -0.254386
v 0.100765 -0.070089 -0.306157
v 0.037805 -0.630261 0.014733
v 0.078713 -0.245591 -0.039160
v -0.020477 -0.242541 0.042300
v -0.008369 -0.250716 -0.032362
v 0.124264 -0.364621 -0.042930
v -0.061706 -0.364283 0.017864
v 0.060655 -0.367178 0.120566
v -0.000280 -0.363331 -0.073857
v 0.099032 -0.243940 0.038794
v 0.031135 -0.243572 0.080732
vt 0.870767 1.000000
vt 0.750421 0.875000
vt 0.956349 0.875000
vt 0.390590 1.000000
vt 0.561751 0.875000
vt 0.405910 0.875000
vt 0.197861 0.875000
vt 0.037641 1.000000
vt 0.027893 0.875000
vt 0.093709 0.755532
vt 0.020422 0.500000
vt 0.145689 0.500000
vt 0.329122 0.500000
vt 0.266839 0.769219
vt 0.546798 0.500000
vt 0.492798 0.758782
vt 0.620272 0.774867
vt 0.785847 0.500000
vt 0.037998 0.812500
vt 0.182365 0.804502
vt 0.317149 0.812500
vt 0.453145 0.812500
vt 0.588662 0.812500
vt 0.749744 0.812500
vt 0.890645 0.812500
vt 0.981567 0.812500
vt 0.802217 0.761699
vt 0.965138 0.774966
vt 0.972337 0.500000
vt 0.360338 0.764996
vt 0.008025 0.765071
vt 0.255663 0.500000
vt 0.733306 0.500000
vt 0.537086 0.500000
vt 0.844832 0.500000
vt 1.000000 0.500000
vt 0.064434 0.500000
vt 0.322072 0.500000
vt 0.132965 0.500000
vt 0.475085 0.500000
vt 0.689119 0.500000
vt 0.015651 0.500000
vt 0.906842 0.500000
vt 1.000000 0.500000
vt 0.300797 0.500000
vn 0.3398 0.8962 -0.2852
vn 0.1897 0.9709 0.1460
vn -0.0345 0.9390 0.3421
vn -0.3556 0.9237 0.1423
vn -0.1379 0.9559 -0.2592
vn 0.0975 -0.9833 0.1539
vn 0.1833 -0.9827 0.0279
vn 0.0669 -0.9829 -0.1713
vn -0.1401 -0.9866 -0.0836
vn -0.4838 0.6882 -0.5407
vn -0.7545 0.6562 -0.0134
vn -0.4966 0.6394 0.5870
vn 0.0816 0.6910 0.7182
vn 0.6130 0.7116 0.3433
vn 0.6202 0.7199 -0.3117
vn 0.2118 0.6052 -0.7674
vn 0.4072 -0.7751 -0.4831
vn -0.1303 -0.9790 0.1565
vn 0.6180 -0.7657 0.1783
vn 0.2188 -0.7251 0.6530
vn -0.3135 -0.7128 0.6275
vn -0.6245 -0.7210 0.3002
vn -0.8721 -0.4885 0.0295
vn -0.1357 -0.7584 -0.6375
vn -0.4762 -0.8491 -0.2285
vn -0.6270 -0.2433 0.7401
vn 0.2289 -0.2771 -0.9332
vn 0.9102 -0.2201 0.3507
vn -0.7936 -0.2906 -0.5345
vn -0.8230 0.1434 -0.5497
vn 0.4894 0.3712 0.7891
vn -0.0930 0.3384 -0.9364
vn 0.9034 0.3534 -0.2430
vn 0.5556 -0.2482 -0.7935
vn 0.8254 -0.2393 0.5113
vn -0.4953 -0.2982 -0.8160
vn 0.4746 -0.4227 0.7721
vn -0.0452 -0.4284 -0.9025
vn -0.5556 -0.3873 0.7357
vn 0.1867 0.9738 0.1302
vn -0.1425 0.9798 -0.1401
vn 0.0537 -0.9755 0.2135
vn 0.2323 -0.9661 0.1126
vn 0.2036 -0.9741 -0.0987
vn 0.0897 -0.9793 -0.1815
vn -0.0670 -0.9724 -0.2233
vn -0.2300 -0.9713 -0.0600
vn -0.6270 0.0786 0.7751
vn -0.2460 0.8607 -0.4458
vn -0.4598 0.8701 0.1773
vn -0.0545 0.8212 0.5681
vn 0.4719 0.8128 0.3415
vn 0.3924 0.8591 -0.3284
vn 0.2459 -0.3812 -0.8912
vn 0.8454 -0.3237 -0.4248
vn 0.7918 -0.4201 0.4434
vn 0.0995 -0.4721 0.8759
vn -0.5745 -0.4570 0.6790
vn -0.5788 -0.4121 -0.7037
vn -0.9353 -0.3347 -0.1150
vn 0.9310 -0.0501 0.3614
vn 0.2404 0.1225 -0.9629
vn -0.9184 0.3486 -0.1871
vn -0.9317 -0.3402 -0.1274
vn 0.8578 -0.4674 -0.2137
vn -0.3556 -0.2651 0.8962
usemtl None
s off
f 7/1/1 9/2/1 13/3/1
f 9/2/2 3/4/2 10/5/2
f 10/5/3 3/4/3 11/6/3
f 11/6/4 3/4/4 12/7/4
f 12/7/5 7/8/5 13/9/5
f 25/10/6 6/11/6 5/12/6
f 4/13/7 8/14/7 5/12/7
f 2/15/8 23/16/8 4/13/8
f 22/17/9 2/15/9 1/18/9
f 12/7/10 20/19/10 19/20/10
f 12/7/11 19/20/11 18/21/11
f 11/6/12 18/21/12 17/22/12
f 16/23/13 10/5/13 17/22/13
f 15/24/14 9/2/14 16/23/14
f 9/2/15 15/24/15 14/25/15
f 20/26/16 13/3/16 14/25/16
f 14/25/17 21/27/17 26/28/17
f 21/27/18 1/18/18 6/29/18 26/28/18
f 21/27/19 15/24/19 22/17/19
f 22/17/20 16/23/20 23/16/20
f 17/22/21 24/30/21 23/16/21
f 18/21/22 8/14/22 24/30/22
f 8/14/23 18/21/23 19/20/23
f 25/10/24 20/19/24 26/31/24
f 8/14/25 19/20/25 25/10/25
f 32/32/26 27/33/26 33/34/26
f 31/35/27 27/33/27 34/36/27
f 33/34/28 27/33/28 31/35/28
f 34/37/29 27/38/29 32/32/29
f 30/39/30 34/37/30 32/32/30
f 36/40/31 33/34/31 35/41/31
f 28/42/32 34/37/32 30/39/32
f 35/41/33 31/35/33 28/43/33
f 1/18/34 28/43/34 6/29/34
f 2/15/35 35/41/35 1/18/35
f 6/11/36 30/39/36 5/12/36
f 2/15/37 36/40/37 35/41/37
f 6/29/38 28/43/38 30/44/38
f 4/13/39 29/45/39 36/40/39
f 7/1/40 3/4/40 9/2/40
f 12/7/41 3/4/41 7/8/41
f 25/10/42 26/31/42 6/11/42
f 5/12/43 8/14/43 25/10/43
f 24/30/44 8/14/44 4/13/44
f 23/16/45 24/30/45 4/13/45
f 22/17/46 23/16/46 2/15/46
f 21/27/47 22/17/47 1/18/47
f 32/32/48 33/34/48 36/40/48 29/45/48
f 12/7/49 13/9/49 20/19/49
f 11/6/50 12/7/50 18/21/50
f 17/22/51 10/5/51 11/6/51
f 9/2/52 10/5/52 16/23/52
f 14/25/53 13/3/53 9/2/53
f 20/26/54 14/25/54 26/28/54
f 21/27/55 14/25/55 15/24/55
f 15/24/56 16/23/56 22/17/56
f 16/23/57 17/22/57 23/16/57
f 24/30/58 17/22/58 18/21/58
f 25/10/59 19/20/59 20/19/59
f 5/12/60 30/39/60 29/45/60
f 35/41/61 33/34/61 31/35/61
f 28/43/62 31/35/62 34/36/62
f 29/45/63 30/39/63 32/32/63
f 4/13/64 5/12/64 29/45/64
f 1/18/65 35/41/65 28/43/65
f 2/15/66 4/13/66 36/40/66
