# Blender v2.81 (sub 16) OBJ File: 'predator_var1.blend'
# www.blender.org
mtllib predator_var1.mtl
o Cube.001
v 0.091728 0.091727 0.175860
v -0.091728 0.091727 0.175860
v -0.063518 0.067557 0.300436
v 0.063518 0.067557 0.300436
v 0.063518 0.004039 0.405596
v -0.063518 0.004039 0.405596
v -0.029623 0.000000 -0.246855
v -0.029623 0.029623 -0.246855
v -0.019758 0.194962 -0.435862
v -0.019758 0.000000 -0.384187
v -0.091728 -0.091728 0.299997
v 0.091728 -0.091728 0.299997
v 0.063518 -0.059479 0.405596
v -0.063518 -0.059479 0.405596
v 0.091728 -0.000000 0.299997
v 0.019758 0.194962 -0.435862
v 0.019758 0.000000 -0.384187
v 0.029623 0.000000 -0.246855
v 0.029623 0.029623 -0.246855
v 0.091728 0.091728 -0.017806
v 0.091728 -0.000000 0.027452
v -0.029623 -0.029623 -0.246855
v 0.029623 -0.029623 -0.246855
v 0.091728 -0.091728 0.027452
v -0.091728 -0.091728 0.027452
v -0.091728 -0.000000 0.299997
v -0.091728 0.091728 -0.017806
v -0.091728 -0.000000 0.027452
v -0.019758 -0.194962 -0.435862
v 0.019758 -0.194962 -0.435862
v 0.000000 0.102511 0.200001
v 0.000000 0.075024 0.400633
v 0.000000 0.004039 0.505793
v 0.000000 -0.102511 0.333971
v 0.000000 -0.066946 0.505793
v 0.000000 0.000000 -0.436721
v 0.000000 0.217882 -0.488396
v 0.000000 -0.033105 -0.277170
v 0.000000 -0.102511 0.029385
v 0.000000 0.033105 -0.277170
v 0.000000 0.102511 -0.016432
v 0.000000 -0.217882 -0.488396
v 0.031759 0.071291 0.350535
v 0.045864 -0.097119 0.316984
v 0.009879 0.000000 -0.410454
v 0.009879 0.206422 -0.462129
v 0.014811 -0.031364 -0.262012
v 0.014811 0.031364 -0.262012
v 0.009879 -0.206422 -0.462129
v 0.045864 0.097119 0.187931
v 0.031759 0.004039 0.455695
v 0.031759 -0.063213 0.455695
v 0.045864 -0.097119 0.028419
v 0.018721 0.097119 -0.017119
v -0.045864 0.097119 0.187931
v -0.031759 0.004039 0.455695
v -0.031759 -0.063213 0.455695
v -0.045864 -0.097119 0.028419
v -0.021639 0.097119 -0.017119
v -0.031759 0.071291 0.350535
v -0.045864 -0.097119 0.316984
v -0.009879 0.000000 -0.410454
v -0.009879 0.206422 -0.462129
v -0.014811 -0.031364 -0.262012
v -0.014811 0.031364 -0.262012
v -0.009879 -0.206422 -0.462129
v -0.091728 -0.000000 0.042582
v -0.091728 0.091727 0.079027
v 0.091728 -0.000000 0.046684
v 0.091728 0.091727 0.079027
v -0.091728 -0.091728 0.163724
v 0.091728 -0.091728 0.163724
v 0.000000 0.243888 -0.011018
v 0.000000 -0.102511 0.181678
v 0.018721 0.097119 0.085406
v 0.045864 -0.097119 0.172701
v -0.045864 -0.097119 0.172701
v -0.021639 0.097119 0.085406
v 0.000000 0.102511 0.145893
v 0.000000 -0.102511 0.257824
v 0.018721 0.097119 0.136668
v 0.045864 -0.097119 0.244842
v -0.045864 -0.097119 0.244842
v -0.021639 0.097119 0.136668
v -0.091728 -0.000000 0.231860
v -0.091728 0.091727 0.127444
v 0.091728 -0.000000 0.231860
v 0.091728 0.091727 0.127444
v -0.091728 -0.091728 0.231860
v 0.091728 -0.091728 0.231860
v -0.091728 -0.018445 0.027452
v -0.029623 -0.005957 -0.246855
v 0.019758 -0.039204 -0.384187
v 0.029623 -0.005957 -0.246855
v 0.091728 -0.018445 0.027452
v 0.091728 -0.018445 0.299997
v -0.063518 -0.008733 0.405596
v -0.091728 -0.018445 0.299997
v -0.019758 -0.039204 -0.384187
v 0.063518 -0.008733 0.405596
v 0.000000 -0.010235 0.505793
v 0.000000 -0.043813 -0.436721
v 0.031759 -0.009484 0.455695
v 0.009879 -0.041508 -0.410454
v -0.009879 -0.041508 -0.410454
v -0.031759 -0.009484 0.455695
v -0.091728 -0.018445 0.042582
v 0.091728 -0.018445 0.046684
v -0.091728 -0.018445 0.231860
v 0.091728 -0.018445 0.231860
v -0.029623 -0.011582 -0.246855
v 0.019758 -0.076226 -0.384187
v 0.029623 -0.011582 -0.246855
v 0.091728 -0.035864 0.027452
v -0.063518 -0.020795 0.405596
v -0.019758 -0.076226 -0.384187
v 0.063518 -0.020795 0.405596
v 0.000000 -0.023715 0.505793
v 0.000000 -0.085187 -0.436721
v 0.031759 -0.022255 0.455695
v 0.009879 -0.080707 -0.410454
v -0.009879 -0.080707 -0.410454
v -0.031759 -0.022255 0.455695
v -0.091728 -0.035864 0.042582
v 0.091728 -0.035864 0.046684
v -0.091728 -0.035864 0.231860
v 0.091728 -0.035864 0.231860
v -0.091728 -0.035864 0.027452
v 0.091728 -0.035864 0.299997
v -0.091728 -0.035864 0.299997
v -0.091728 -0.000000 0.192782
v -0.091728 0.091727 0.099675
v 0.091728 -0.000000 0.192782
v 0.091728 0.091727 0.099675
v -0.091728 -0.091728 0.192782
v 0.091728 -0.091728 0.192782
v 0.000000 0.183595 0.055900
v 0.000000 -0.102511 0.214152
v 0.018721 0.097119 0.107268
v 0.045864 -0.097119 0.203467
v -0.045864 -0.097119 0.203467
v -0.021639 0.097119 0.107268
v 0.232045 -0.055925 -0.003813
v -0.230442 -0.054740 -0.004567
v -0.091728 -0.035864 0.192782
v 0.091728 -0.035864 0.192782
v 0.055605 0.000000 -0.132093
v 0.055605 0.055605 -0.151028
v -0.055605 -0.055605 -0.132093
v 0.055605 -0.055605 -0.132093
v -0.055605 0.055605 -0.151028
v -0.055605 0.000000 -0.132093
v 0.000000 0.117188 -0.215753
v 0.000000 -0.062142 -0.148916
v 0.016447 0.058874 -0.159556
v 0.027803 -0.058874 -0.140505
v -0.027803 -0.058874 -0.140505
v -0.017668 0.058874 -0.159556
v 0.104313 -0.038452 -0.206129
v -0.112081 -0.040513 -0.201301
v -0.055605 -0.021741 -0.132093
v 0.055605 -0.021741 -0.132093
v 0.063068 0.000000 -0.099131
v 0.063068 0.063068 -0.123503
v -0.063068 -0.063068 -0.099131
v 0.063068 -0.063068 -0.099131
v -0.063068 0.063068 -0.123503
v -0.063068 0.000000 -0.099131
v 0.000000 0.092442 -0.091688
v 0.000000 -0.070483 -0.112078
v 0.016917 0.066776 -0.130128
v 0.031534 -0.066776 -0.105604
v -0.031534 -0.066776 -0.105604
v -0.018488 0.066776 -0.130128
v 0.063068 -0.012682 -0.099131
v 0.063068 -0.024658 -0.099131
v -0.063068 -0.012682 -0.099131
v -0.063068 -0.024658 -0.099131
v -0.049834 -0.010021 -0.157583
v -0.049834 -0.019484 -0.157583
v 0.049834 0.000000 -0.157583
v 0.049834 0.049834 -0.172312
v -0.049834 -0.049834 -0.157583
v 0.049834 -0.049834 -0.157583
v -0.049834 0.049834 -0.172312
v -0.049834 0.000000 -0.157583
v 0.000000 0.055693 -0.192314
v 0.000000 -0.055693 -0.177403
v 0.016084 0.052764 -0.182313
v 0.024917 -0.052764 -0.167493
v -0.024917 -0.052764 -0.167493
v -0.017033 0.052764 -0.182313
v 0.049834 -0.010021 -0.157583
v 0.049834 -0.019484 -0.157583
vt 0.812500 0.687500
vt 0.875000 0.687500
vt 0.875000 0.750000
vt 0.812500 0.750000
vt 0.500000 0.937500
vt 0.625000 0.937500
vt 0.625000 1.000000
vt 0.500000 1.000000
vt 0.500000 0.187500
vt 0.625000 0.187500
vt 0.625000 0.250000
vt 0.500000 0.250000
vt 0.312500 0.687500
vt 0.375000 0.687500
vt 0.375000 0.750000
vt 0.312500 0.750000
vt 0.500000 0.687500
vt 0.625000 0.687500
vt 0.625000 0.750000
vt 0.500000 0.750000
vt 0.500000 0.437500
vt 0.625000 0.437500
vt 0.625000 0.500000
vt 0.500000 0.500000
vt 0.498680 0.596158
vt 0.625000 0.596159
vt 0.625000 0.625000
vt 0.500000 0.625000
vt 0.312500 0.596159
vt 0.375000 0.596159
vt 0.375000 0.625000
vt 0.312500 0.625000
vt 0.500000 0.093750
vt 0.625000 0.093750
vt 0.625000 0.125000
vt 0.500000 0.125000
vt 0.811610 0.596335
vt 0.875000 0.596159
vt 0.875000 0.625000
vt 0.812500 0.625000
vt 0.500000 0.000000
vt 0.625000 0.000000
vt 0.625000 0.062500
vt 0.500000 0.062500
vt 0.500000 0.671875
vt 0.625000 0.671875
vt 0.312500 0.671875
vt 0.375000 0.671875
vt 0.812500 0.671875
vt 0.875000 0.671875
vt 0.812500 0.500000
vt 0.875000 0.500000
vt 0.875000 0.562500
vt 0.812500 0.562500
vt 0.312500 0.500000
vt 0.375000 0.500000
vt 0.375000 0.562500
vt 0.312500 0.562500
vt 0.625000 0.562500
vt 0.500000 0.562500
vt 0.500638 0.167160
vt 0.632713 0.167447
vt 0.474902 0.167160
vt 0.474865 0.187500
vt 0.474864 0.500000
vt 0.474864 0.562500
vt 0.474864 0.671875
vt 0.474865 0.687500
vt 0.474864 0.000000
vt 0.474865 0.062500
vt 0.474864 0.093750
vt 0.474864 0.125000
vt 0.474964 0.596159
vt 0.474864 0.625000
vt 0.474864 0.437500
vt 0.474544 0.750000
vt 0.474864 0.250000
vt 0.474892 0.937500
vt 0.474362 1.000000
vt 0.474892 0.812500
vt 0.500000 0.812500
vt 0.500000 0.875000
vt 0.475391 0.875000
vt 0.474865 0.312500
vt 0.500000 0.312500
vt 0.500000 0.375000
vt 0.475708 0.375000
vt 0.187500 0.500000
vt 0.250000 0.500000
vt 0.250000 0.562500
vt 0.187500 0.562500
vt 0.687500 0.500000
vt 0.750000 0.500000
vt 0.750000 0.562500
vt 0.687500 0.562500
vt 0.687500 0.671875
vt 0.750000 0.671875
vt 0.750000 0.687500
vt 0.687500 0.687500
vt 0.187500 0.671875
vt 0.250000 0.671875
vt 0.250000 0.687500
vt 0.187500 0.687500
vt 0.688058 0.596334
vt 0.750214 0.595937
vt 0.750000 0.625000
vt 0.687500 0.625000
vt 0.187500 0.596159
vt 0.250000 0.596159
vt 0.250000 0.625000
vt 0.187500 0.625000
vt 0.625000 0.312500
vt 0.625000 0.375000
vt 0.250000 0.750000
vt 0.187500 0.750000
vt 0.625000 0.812500
vt 0.625000 0.875000
vt 0.750000 0.750000
vt 0.687500 0.750000
vt 0.125000 0.687500
vt 0.125000 0.750000
vt 0.125000 0.596159
vt 0.125000 0.625000
vt 0.125000 0.671875
vt 0.125000 0.500000
vt 0.125000 0.562500
vt 0.812500 0.656250
vt 0.750000 0.656250
vt 0.187500 0.656250
vt 0.125000 0.656250
vt 0.312500 0.656250
vt 0.250000 0.656250
vt 0.687500 0.656250
vt 0.625000 0.656250
vt 0.474864 0.087086
vt 0.500000 0.087086
vt 0.500000 0.656250
vt 0.474864 0.656250
vt 0.875000 0.656250
vt 0.375000 0.656250
vt 0.625000 0.087068
vt 0.625000 0.078125
vt 0.500000 0.078125
vt 0.474864 0.078125
vt 0.750000 0.662914
vt 0.813503 0.663085
vt 0.125000 0.662927
vt 0.187500 0.662910
vt 0.250000 0.662893
vt 0.312500 0.662910
vt 0.625000 0.662928
vt 0.686364 0.663077
vt 0.474864 0.662914
vt 0.500000 0.662914
vt 0.875000 0.662923
vt 0.375000 0.662920
vt 0.451127 0.662914
vt 0.451127 0.671875
vt 0.451127 0.062500
vt 0.451127 0.078125
vt 0.451127 0.625000
vt 0.451127 0.656250
vt 0.451127 0.087086
vt 0.451127 0.093750
vt 0.451826 0.875000
vt 0.451163 0.937500
vt 0.451127 0.250000
vt 0.451127 0.312500
vt 0.452295 0.375000
vt 0.451127 0.437500
vt 0.449683 0.750000
vt 0.451169 0.812500
vt 0.450466 1.000000
vt 0.451127 0.187500
vt 0.451127 0.687500
vt 0.451127 0.500000
vt 0.452335 0.596159
vt 0.451127 0.125000
vt 0.449005 -0.000000
vt 0.451127 0.562500
vt 0.453432 0.167160
vt 0.370844 0.167160
vt 0.375000 0.187500
vt 0.375000 0.000000
vt 0.375000 0.062500
vt 0.375000 0.093750
vt 0.375000 0.125000
vt 0.375000 0.437500
vt 0.375000 0.250000
vt 0.375000 0.937500
vt 0.375000 1.000000
vt 0.375000 0.812500
vt 0.375000 0.875000
vt 0.375000 0.312500
vt 0.375000 0.375000
vt 0.375000 0.087086
vt 0.375000 0.078125
vt 0.374110 0.582754
vt 0.453432 0.582840
vt 0.451689 0.588648
vt 0.375000 0.588648
vt 0.375000 0.153841
vt 0.452335 0.153841
vt 0.451689 0.161352
vt 0.375000 0.161352
vt 0.474964 0.153841
vt 0.474914 0.161352
vt 0.474902 0.582840
vt 0.474914 0.588648
vt 0.749678 0.583139
vt 0.808374 0.583106
vt 0.812500 0.588648
vt 0.750000 0.588648
vt 0.122624 0.582667
vt 0.189743 0.583003
vt 0.187500 0.588648
vt 0.125000 0.588648
vt 0.250000 0.583262
vt 0.310257 0.583003
vt 0.312500 0.588648
vt 0.250000 0.588648
vt 0.627073 0.582567
vt 0.691816 0.583113
vt 0.687500 0.588648
vt 0.625000 0.588648
vt 0.500638 0.582840
vt 0.499385 0.588648
vt 0.498680 0.153841
vt 0.499385 0.161352
vt 0.625000 0.153841
vt 0.625000 0.161352
vt 0.878442 0.582587
vt 0.875000 0.588648
vn -0.2578 0.9488 0.1826
vn -0.2739 0.9399 0.2040
vn -0.2400 0.9576 0.1591
vn -0.8031 0.3290 0.4968
vn -0.6654 0.6313 0.3983
vn -0.6618 0.6366 0.3958
vn -0.7785 0.4064 0.4784
vn -0.9975 -0.0079 -0.0700
vn -0.9975 -0.0157 -0.0683
vn -0.9975 -0.0085 -0.0698
vn 0.3412 -0.8997 0.2724
vn 0.3643 -0.8811 0.3017
vn 0.3118 -0.9205 0.2355
vn 0.9388 0.2274 0.2586
vn 0.8937 0.3715 0.2515
vn 0.9593 0.1100 0.2601
vn 0.9316 -0.0464 -0.3605
vn 0.9254 -0.0912 -0.3679
vn 0.9248 -0.0949 -0.3685
vn 0.9319 -0.0435 -0.3600
vn 0.9798 0.1181 -0.1613
vn 0.9693 -0.0921 -0.2278
vn 0.9687 -0.1019 -0.2265
vn 0.9738 -0.0426 -0.2235
vn 0.1509 -0.9604 -0.2341
vn 0.1465 -0.9593 -0.2414
vn 0.1301 -0.9622 -0.2393
vn 0.1299 -0.9639 -0.2326
vn -0.9621 0.2706 -0.0332
vn -1.0000 0.0000 0.0000
vn -0.5480 0.8217 -0.1565
vn -0.1058 0.9561 -0.2733
vn -0.0901 0.9582 -0.2716
vn -0.2937 0.9263 -0.2359
vn -0.9593 0.1100 0.2601
vn -0.8937 0.3715 0.2515
vn -0.9388 0.2274 0.2586
vn 0.9838 0.1621 0.0765
vn 1.0000 0.0000 0.0000
vn 0.1168 -0.9932 -0.0000
vn -0.3456 0.9320 0.1089
vn -0.0822 0.9966 -0.0099
vn -0.0887 0.9958 -0.0215
vn -0.1146 0.9930 -0.0270
vn 0.5821 0.6075 0.5405
vn 0.5928 0.5948 0.5429
vn 0.5892 0.5992 0.5421
vn -0.5821 -0.6075 0.5405
vn -0.5928 -0.5948 0.5429
vn -0.5892 -0.5992 0.5421
vn 0.9975 -0.0085 -0.0698
vn 0.9975 -0.0157 -0.0683
vn 0.9975 -0.0079 -0.0700
vn -0.9242 0.2160 -0.3151
vn -0.9709 -0.0583 -0.2324
vn -0.9712 -0.0434 -0.2343
vn -0.9735 -0.0217 -0.2276
vn -0.8428 0.1949 -0.5018
vn -0.9753 0.0000 -0.2208
vn 0.9974 0.0000 -0.0716
vn 0.9808 -0.0187 0.1941
vn -0.9661 0.0000 0.2581
vn -0.9885 0.1124 -0.1011
vn 0.9977 -0.0311 -0.0601
vn 0.9753 -0.0000 -0.2208
vn 0.9360 0.0000 -0.3520
vn 0.9661 0.0000 0.2581
vn -0.9974 0.0000 -0.0716
vn -0.8446 0.0000 0.5354
vn 0.8446 0.0000 0.5354
vn 0.8031 0.3290 0.4968
vn 0.0000 0.3884 0.9215
vn 0.0000 0.0000 1.0000
vn -0.9360 0.0000 -0.3520
vn -0.9316 -0.0464 -0.3605
vn 0.0000 -0.1312 -0.9914
vn 0.0000 0.0000 -1.0000
vn 0.5821 -0.6075 0.5405
vn 0.0000 -0.7484 0.6632
vn 0.5892 -0.5992 0.5421
vn -0.5821 0.6075 0.5405
vn 0.0000 0.7484 0.6632
vn -0.5892 0.5992 0.5421
vn 0.3714 0.9230 0.1008
vn 0.0120 0.9881 0.1533
vn 0.0024 0.9993 -0.0369
vn 0.1144 0.9930 -0.0302
vn -0.1168 -0.9932 -0.0000
vn -0.0000 -1.0000 -0.0000
vn 0.5627 0.8118 -0.1557
vn 0.0254 0.9839 -0.1768
vn 0.0253 0.9758 -0.2170
vn 0.3209 0.9183 -0.2321
vn -0.1509 -0.9604 -0.2341
vn 0.0000 -0.9736 -0.2284
vn 0.0000 -0.9738 -0.2273
vn -0.1299 -0.9639 -0.2326
vn -0.9254 -0.0912 -0.3679
vn 0.0000 -0.2367 -0.9716
vn -0.3412 -0.8997 0.2724
vn 0.0000 -0.9727 0.2319
vn -0.3118 -0.9205 0.2355
vn 0.6654 0.6313 0.3983
vn 0.0000 0.8357 0.5493
vn 0.2578 0.9488 0.1826
vn 0.0000 0.9880 0.1543
vn 0.2400 0.9576 0.1591
vn 0.2739 0.9399 0.2040
vn 0.7785 0.4064 0.4784
vn 0.6618 0.6366 0.3958
vn 0.1020 0.9568 -0.2723
vn 0.0867 0.9587 -0.2707
vn 0.0794 0.9968 -0.0108
vn 0.0862 0.9960 -0.0235
vn -0.5928 0.5948 0.5429
vn -0.3643 -0.8811 0.3017
vn -0.9319 -0.0435 -0.3600
vn -0.9248 -0.0949 -0.3685
vn -0.1465 -0.9593 -0.2414
vn -0.1301 -0.9622 -0.2393
vn 0.5928 -0.5948 0.5429
vn 0.0577 0.6058 -0.7935
vn -0.6604 0.7405 -0.1247
vn -0.6306 0.7746 0.0483
vn 0.0018 0.9383 -0.3457
vn 0.0737 0.9973 0.0000
vn 0.6684 0.7357 -0.1096
vn 0.6439 0.7638 0.0434
vn -0.9268 -0.2305 -0.2963
vn -0.9187 0.3780 0.1146
vn 0.9621 0.2705 -0.0341
vn 0.9879 0.1151 -0.1041
vn -0.0767 0.9971 0.0000
vn -0.9839 0.1615 0.0762
vn -0.9811 -0.0189 0.1925
vn 0.0265 0.8270 0.5616
vn -0.5194 0.8360 0.1772
vn 0.5445 0.8228 0.1628
vn 0.9250 -0.2343 -0.2991
vn 0.9180 0.3798 0.1142
vn 0.8396 -0.5183 0.1629
vn 0.9699 -0.2225 0.0992
vn -0.9705 -0.2204 0.0982
vn 0.9442 -0.3271 -0.0390
vn -0.8430 -0.5129 0.1619
vn -0.9444 -0.3267 -0.0379
vn -0.9279 0.0619 -0.3678
vn -0.9245 0.0813 -0.3724
vn 0.0000 0.2401 -0.9707
vn 0.9245 0.0813 -0.3724
vn -0.9971 0.0112 -0.0754
vn -0.9967 0.0211 -0.0788
vn 0.9279 0.0619 -0.3678
vn 0.9528 -0.2682 -0.1420
vn 0.9967 0.0211 -0.0788
vn 0.9971 0.0112 -0.0754
vn -0.8785 -0.3264 -0.3490
vn 0.9961 0.0310 -0.0821
vn 0.9075 0.1580 -0.3892
vn 0.9056 0.1652 -0.3907
vn -0.9961 0.0310 -0.0821
vn -0.9075 0.1580 -0.3892
vn 0.0000 0.3714 -0.9285
vn -0.9056 0.1652 -0.3907
vn 0.8790 -0.3253 -0.3486
vn 0.7348 -0.6708 -0.1005
vn -0.9511 -0.2755 -0.1396
vn -0.7114 -0.6942 -0.1096
vn -0.9987 -0.0145 -0.0496
vn -0.7979 -0.3223 -0.5093
vn 0.8369 0.2055 -0.5073
vn 0.7768 -0.3152 -0.5452
vn 0.0132 0.7999 -0.6000
vn -0.5357 0.7410 -0.4050
vn -0.6340 0.7318 -0.2499
vn 0.0062 0.7988 -0.6015
vn -0.2211 -0.9427 -0.2499
vn -0.2288 -0.9436 -0.2393
vn -0.1830 -0.9543 -0.2362
vn -0.1819 -0.9522 -0.2456
vn 0.0000 -0.9726 -0.2324
vn 0.2288 -0.9436 -0.2393
vn 0.1830 -0.9543 -0.2362
vn 0.0000 -0.9732 -0.2300
vn 0.1801 0.9431 -0.2795
vn 0.5411 0.7426 -0.3945
vn 0.6417 0.7266 -0.2456
vn 0.1355 0.9517 -0.2756
vn 0.9230 0.2194 -0.3163
vn 0.9184 0.3579 -0.1684
vn -0.9792 0.1282 -0.1571
vn -0.9100 0.3780 -0.1705
vn -0.9693 -0.0921 -0.2278
vn -0.9701 -0.0784 -0.2297
vn -0.1850 0.9417 -0.2810
vn -0.1401 0.9507 -0.2768
vn 0.2211 -0.9427 -0.2499
vn 0.1819 -0.9522 -0.2456
vn 0.9709 -0.0583 -0.2324
vn 0.9701 -0.0784 -0.2297
vn -0.9738 -0.0426 -0.2235
vn -0.9687 -0.1019 -0.2265
vn 0.9735 -0.0217 -0.2276
vn 0.9712 -0.0434 -0.2343
vn 0.2571 -0.9379 -0.2328
vn 0.2699 -0.9286 -0.2548
vn -0.3070 0.9161 -0.2579
vn -0.2418 0.9274 -0.2854
vn 0.3111 0.9153 -0.2559
vn 0.0041 0.9651 -0.2617
vn -0.2571 -0.9379 -0.2328
vn 0.0000 -0.9723 -0.2338
vn 0.2363 0.9294 -0.2836
vn -0.2699 -0.9286 -0.2548
usemtl Material.001
s 1
f 55/1/1 2/2/2 3/3/2 60/4/3
f 56/5/4 60/6/5 3/7/6 6/8/7
f 7/9/8 8/10/9 9/11/9 10/12/10
f 44/13/11 12/14/12 13/15/12 52/16/13
f 15/17/14 1/18/15 4/19/15 5/20/16
f 45/21/17 46/22/18 16/23/19 17/24/20
f 163/25/21 164/26/22 20/27/23 21/28/24
f 172/29/25 166/30/26 24/31/27 53/32/28
f 67/33/29 68/34/30 27/35/30 28/36/30
f 174/37/31 167/38/32 27/39/33 59/40/34
f 6/41/35 3/42/36 2/43/36 26/44/37
f 87/45/38 88/46/39 1/18/39 15/17/39
f 82/47/40 90/48/40 12/14/40 44/13/40
f 84/49/41 86/50/42 2/2/43 55/1/44
f 63/51/45 9/52/46 8/53/46 65/54/47
f 49/55/48 30/56/49 23/57/49 47/58/50
f 17/24/51 16/23/52 19/59/52 18/60/53
f 186/61/54 185/62/55 8/10/56 7/9/57
f 179/63/58 186/61/54 7/9/57 92/64/59
f 93/65/60 17/24/51 18/60/53 94/66/60
f 110/67/61 87/45/38 15/17/39 96/68/39
f 97/69/62 6/41/35 26/44/37 98/70/62
f 107/71/63 67/33/29 28/36/30 91/72/30
f 175/73/64 163/25/21 21/28/24 95/74/65
f 104/75/66 45/21/17 17/24/20 93/65/66
f 96/68/67 15/17/14 5/20/16 100/76/67
f 92/64/68 7/9/8 10/12/10 99/77/68
f 106/78/69 56/5/4 6/8/7 97/79/69
f 103/80/70 51/81/71 33/82/72 101/83/73
f 105/84/74 62/85/75 36/86/76 102/87/77
f 66/88/78 42/89/79 38/90/79 64/91/80
f 46/92/81 37/93/82 40/94/82 48/95/83
f 81/96/84 79/97/85 31/98/86 50/99/87
f 83/100/88 80/101/89 34/102/89 61/103/88
f 171/104/90 169/105/91 41/106/92 54/107/93
f 173/108/94 170/109/95 39/110/96 58/111/97
f 62/85/75 63/112/98 37/113/99 36/86/76
f 61/103/100 34/102/101 35/114/101 57/115/102
f 51/81/71 43/116/103 32/117/104 33/82/72
f 50/99/105 31/98/106 32/118/106 43/119/107
f 1/18/108 50/99/105 43/119/107 4/19/108
f 5/20/109 4/19/110 43/116/103 51/81/71
f 164/26/111 171/104/90 54/107/93 20/27/112
f 88/46/113 81/96/84 50/99/87 1/18/114
f 16/23/115 46/92/81 48/95/83 19/59/115
f 100/76/70 5/20/109 51/81/71 103/80/70
f 102/87/77 36/86/76 45/21/17 104/75/66
f 42/89/79 49/55/48 47/58/50 38/90/79
f 80/101/89 82/47/40 44/13/40 34/102/89
f 170/109/95 172/29/25 53/32/28 39/110/96
f 36/86/76 37/113/99 46/22/18 45/21/17
f 34/102/101 44/13/11 52/16/13 35/114/101
f 11/120/116 61/103/100 57/115/102 14/121/116
f 10/12/117 9/11/118 63/112/98 62/85/75
f 165/122/119 173/108/94 58/111/97 25/123/120
f 89/124/88 83/100/88 61/103/88 11/120/88
f 29/125/121 66/88/78 64/91/80 22/126/121
f 99/77/74 10/12/117 62/85/75 105/84/74
f 101/83/73 33/82/72 56/5/4 106/78/69
f 37/93/82 63/51/45 65/54/47 40/94/82
f 79/97/85 84/49/41 55/1/44 31/98/86
f 169/105/91 174/37/31 59/40/34 41/106/92
f 33/82/72 32/117/104 60/6/5 56/5/4
f 31/98/106 55/1/1 60/4/3 32/118/106
f 41/106/122 59/40/123 78/127/124 73/128/125
f 25/123/88 58/111/88 77/129/88 71/130/88
f 39/110/89 53/32/40 76/131/40 74/132/89
f 20/27/126 54/107/127 75/133/128 70/134/126
f 58/111/88 39/110/89 74/132/89 77/129/88
f 54/107/127 41/106/122 73/128/125 75/133/128
f 144/135/129 131/136/130 67/33/29 107/71/63
f 95/74/39 21/28/39 69/137/131 108/138/132
f 59/40/123 27/39/133 68/139/133 78/127/124
f 53/32/40 24/31/40 72/140/40 76/131/40
f 21/28/39 20/27/39 70/134/39 69/137/131
f 131/136/130 132/141/30 68/34/30 67/33/29
f 26/44/30 2/43/30 86/142/30 85/143/134
f 98/70/30 26/44/30 85/143/134 109/144/135
f 137/145/136 142/146/137 84/49/41 79/97/85
f 135/147/88 141/148/88 83/100/88 89/124/88
f 138/149/89 140/150/40 82/47/40 80/101/89
f 134/151/126 139/152/138 81/96/84 88/46/113
f 141/148/88 138/149/89 80/101/89 83/100/88
f 139/152/138 137/145/136 79/97/85 81/96/84
f 143/153/139 133/154/140 87/45/38 110/67/61
f 142/146/137 132/155/133 86/50/42 84/49/41
f 140/150/40 136/156/40 90/48/40 82/47/40
f 133/154/140 134/151/39 88/46/39 87/45/38
f 146/157/141 143/153/139 110/67/61 127/158/142
f 130/159/30 98/70/30 109/144/135 126/160/143
f 114/161/39 95/74/39 108/138/132 125/162/144
f 145/163/145 144/135/129 107/71/63 124/164/146
f 118/165/73 101/83/73 106/78/69 123/166/69
f 116/167/147 99/77/74 105/84/74 122/168/148
f 119/169/149 102/87/77 104/75/66 121/170/150
f 117/171/70 100/76/70 103/80/70 120/172/70
f 122/168/148 105/84/74 102/87/77 119/169/149
f 120/172/70 103/80/70 101/83/73 118/165/73
f 123/166/69 106/78/69 97/79/69 115/173/69
f 111/174/151 92/64/68 99/77/68 116/167/152
f 129/175/67 96/68/67 100/76/67 117/171/67
f 121/170/150 104/75/66 93/65/66 112/176/153
f 176/177/154 175/73/64 95/74/65 114/161/65
f 124/164/146 107/71/63 91/72/30 128/178/30
f 115/179/62 97/69/62 98/70/62 130/159/62
f 127/158/142 110/67/61 96/68/39 129/175/39
f 112/176/155 93/65/60 94/66/60 113/180/156
f 180/181/157 179/63/58 92/64/59 111/174/59
f 183/182/59 180/181/157 111/174/59 22/183/59
f 30/56/158 112/176/155 113/180/156 23/57/158
f 90/48/39 127/158/142 129/175/39 12/14/39
f 14/184/62 115/179/62 130/159/62 11/185/62
f 71/186/30 124/164/146 128/178/30 25/187/30
f 166/30/65 176/177/154 114/161/65 24/31/65
f 49/188/159 121/170/150 112/176/153 30/56/160
f 12/14/67 129/175/67 117/171/67 13/15/67
f 22/183/161 111/174/151 116/167/152 29/189/161
f 57/190/69 123/166/69 115/173/69 14/191/69
f 52/192/70 120/172/70 118/165/73 35/193/73
f 66/194/162 122/168/148 119/169/149 42/195/163
f 13/15/70 117/171/70 120/172/70 52/192/70
f 42/195/163 119/169/149 121/170/150 49/188/159
f 29/189/164 116/167/147 122/168/148 66/194/162
f 35/193/73 118/165/73 123/166/69 57/190/69
f 135/196/30 145/163/145 124/164/146 71/186/30
f 24/31/39 114/161/39 125/162/144 72/140/39
f 11/185/30 130/159/30 126/160/143 89/197/30
f 136/156/39 146/157/141 127/158/142 90/48/39
f 72/140/39 125/162/144 146/157/141 136/156/39
f 89/197/30 126/160/143 145/163/145 135/196/30
f 126/160/143 109/144/135 144/135/129 145/163/145
f 125/162/144 108/138/132 143/153/139 146/157/141
f 69/137/131 70/134/39 134/151/39 133/154/140
f 76/131/40 72/140/40 136/156/40 140/150/40
f 78/127/124 68/139/133 132/155/133 142/146/137
f 108/138/132 69/137/131 133/154/140 143/153/139
f 75/133/128 73/128/125 137/145/136 139/152/138
f 77/129/88 74/132/89 138/149/89 141/148/88
f 70/134/126 75/133/128 139/152/138 134/151/126
f 74/132/89 76/131/40 140/150/40 138/149/89
f 71/130/88 77/129/88 141/148/88 135/147/88
f 73/128/125 78/127/124 142/146/137 137/145/136
f 85/143/134 86/142/30 132/141/30 131/136/130
f 109/144/135 85/143/134 131/136/130 144/135/129
f 184/198/65 194/199/165 162/200/166 150/201/65
f 165/202/59 178/203/167 161/204/168 149/205/59
f 178/203/167 177/206/169 160/207/170 161/204/168
f 194/199/165 193/208/171 159/209/172 162/200/166
f 187/210/173 192/211/174 158/212/175 153/213/176
f 183/214/177 191/215/178 157/216/179 149/217/180
f 188/218/181 190/219/182 156/220/183 154/221/184
f 182/222/185 189/223/186 155/224/187 148/225/188
f 191/215/178 188/218/181 154/221/184 157/216/179
f 189/223/186 187/210/173 153/213/176 155/224/187
f 193/208/171 181/226/189 147/227/190 159/209/172
f 177/206/169 168/228/191 152/229/192 160/207/170
f 168/228/191 167/230/193 151/231/194 152/229/192
f 192/211/174 185/232/195 151/233/196 158/212/175
f 190/219/182 184/198/197 150/201/198 156/220/183
f 181/226/189 182/222/199 148/225/200 147/227/190
f 28/36/201 27/35/202 167/230/193 168/228/191
f 91/72/59 28/36/201 168/228/191 177/206/169
f 128/178/59 91/72/59 177/206/169 178/203/167
f 25/187/59 128/178/59 178/203/167 165/202/59
f 150/201/65 162/200/166 176/177/154 166/30/65
f 162/200/166 159/209/172 175/73/64 176/177/154
f 153/213/176 158/212/175 174/37/31 169/105/91
f 149/217/180 157/216/179 173/108/94 165/122/119
f 154/221/184 156/220/183 172/29/25 170/109/95
f 148/225/188 155/224/187 171/104/90 164/26/111
f 157/216/179 154/221/184 170/109/95 173/108/94
f 155/224/187 153/213/176 169/105/91 171/104/90
f 159/209/172 147/227/190 163/25/21 175/73/64
f 158/212/175 151/233/196 167/38/32 174/37/31
f 156/220/183 150/201/198 166/30/26 172/29/25
f 147/227/190 148/225/200 164/26/22 163/25/21
f 18/60/203 19/59/204 182/222/199 181/226/189
f 47/58/205 23/57/206 184/198/197 190/219/182
f 65/54/207 8/53/208 185/232/195 192/211/174
f 94/66/65 18/60/203 181/226/189 193/208/171
f 48/95/209 40/94/210 187/210/173 189/223/186
f 64/91/211 38/90/212 188/218/181 191/215/178
f 19/59/213 48/95/209 189/223/186 182/222/185
f 38/90/212 47/58/205 190/219/182 188/218/181
f 22/126/214 64/91/211 191/215/178 183/214/177
f 40/94/210 65/54/207 192/211/174 187/210/173
f 113/180/65 94/66/65 193/208/171 194/199/165
f 23/57/65 113/180/65 194/199/165 184/198/65
f 149/205/59 161/204/168 180/181/157 183/182/59
f 161/204/168 160/207/170 179/63/58 180/181/157
f 160/207/170 152/229/192 186/61/54 179/63/58
f 152/229/192 151/231/194 185/62/55 186/61/54
