# Blender v2.81 (sub 16) OBJ File: 'predator_var2.blend'
# www.blender.org
mtllib predator_var2.mtl
o Cube.001
v 0.091728 0.067878 0.344124
v -0.091728 0.067878 0.344124
v -0.030939 0.022895 0.833899
v 0.030939 0.022895 0.833899
v 0.030939 -0.000000 0.833899
v -0.030939 -0.000000 0.833899
v -0.029623 0.000000 -0.483048
v -0.029623 0.021921 -0.483048
v -0.019758 0.144271 -0.852897
v -0.019758 -0.014474 -0.765633
v -0.091728 -0.067878 0.587035
v 0.091728 -0.067878 0.587035
v 0.030939 -0.022895 0.833899
v -0.030939 -0.022895 0.833899
v 0.091728 -0.000000 0.587035
v 0.019758 0.144271 -0.852897
v 0.019758 -0.014474 -0.765633
v 0.029623 0.000000 -0.483048
v 0.029623 0.021921 -0.483048
v 0.091728 0.067878 -0.034842
v 0.091728 -0.000000 0.053718
v -0.029623 -0.021920 -0.483048
v 0.029623 -0.021920 -0.483048
v 0.091728 -0.067878 0.053718
v -0.091728 -0.067878 0.053718
v -0.091728 -0.000000 0.587035
v -0.091728 0.067878 -0.034842
v -0.091728 -0.000000 0.053718
v -0.019758 -0.144271 -0.852897
v 0.019758 -0.144271 -0.852897
v 0.000000 0.075857 0.391364
v 0.000000 0.025586 0.929401
v 0.000000 -0.000000 0.929401
v 0.000000 -0.075858 0.653516
v 0.000000 -0.025586 0.929401
v 0.000000 -0.014474 -0.868432
v 0.000000 0.161231 -0.955696
v 0.000000 -0.024497 -0.542367
v 0.000000 -0.075858 0.057502
v 0.000000 0.024498 -0.542367
v 0.000000 0.075858 -0.032154
v 0.000000 -0.161231 -0.955696
v 0.015470 0.024240 0.881650
v 0.045864 -0.071868 0.620276
v 0.009879 -0.014474 -0.817033
v 0.009879 0.152751 -0.904297
v 0.014811 -0.023209 -0.512707
v 0.014811 0.023209 -0.512707
v 0.009879 -0.152751 -0.904297
v 0.045864 0.071868 0.367744
v 0.015470 -0.000000 0.881650
v 0.015470 -0.024241 0.881650
v 0.045864 -0.071868 0.055610
v 0.018721 0.071868 -0.033498
v -0.045864 0.071868 0.367744
v -0.015470 -0.000000 0.881650
v -0.015470 -0.024241 0.881650
v -0.045864 -0.071868 0.055610
v -0.021639 0.071868 -0.033498
v -0.015470 0.024240 0.881650
v -0.045864 -0.071868 0.620276
v -0.009879 -0.014474 -0.817033
v -0.009879 0.152751 -0.904297
v -0.014811 -0.023209 -0.512707
v -0.014811 0.023209 -0.512707
v -0.009879 -0.152751 -0.904297
v -0.091728 -0.000000 0.083326
v -0.091728 0.067878 0.154641
v 0.091728 -0.000000 0.091351
v 0.091728 0.067878 0.154641
v -0.091728 -0.067878 0.320377
v 0.091728 -0.067878 0.320377
v 0.000000 0.236807 -0.183014
v 0.000000 -0.075858 0.355509
v 0.018721 0.071868 0.167123
v 0.045864 -0.071868 0.337943
v -0.045864 -0.071868 0.337943
v -0.021639 0.071868 0.167123
v 0.000000 0.075858 0.285484
v 0.000000 -0.075858 0.504512
v 0.018721 0.071868 0.267433
v 0.045864 -0.071868 0.479109
v -0.045864 -0.071868 0.479109
v -0.021639 0.071868 0.267433
v -0.091728 -0.000000 0.453706
v -0.091728 0.067878 0.249382
v 0.091728 -0.000000 0.453706
v 0.091728 0.067878 0.249382
v -0.091728 -0.067878 0.453706
v 0.091728 -0.067878 0.453706
v -0.091728 -0.013649 0.053718
v -0.029623 -0.004408 -0.483048
v 0.019758 -0.043485 -0.765633
v 0.029623 -0.004408 -0.483048
v 0.091728 -0.013649 0.053718
v 0.091728 -0.013649 0.587035
v -0.030939 -0.004604 0.833899
v -0.091728 -0.013649 0.587035
v -0.019758 -0.043485 -0.765633
v 0.030939 -0.004604 0.833899
v 0.000000 -0.005145 0.929401
v 0.000000 -0.046895 -0.868432
v 0.015470 -0.004875 0.881650
v 0.009879 -0.045190 -0.817033
v -0.009879 -0.045190 -0.817033
v -0.015470 -0.004875 0.881650
v -0.091728 -0.013649 0.083326
v 0.091728 -0.013649 0.091351
v -0.091728 -0.013649 0.453706
v 0.091728 -0.013649 0.453706
v -0.029623 -0.008570 -0.483048
v 0.019758 -0.070881 -0.765633
v 0.029623 -0.008570 -0.483048
v 0.091728 -0.026539 0.053718
v -0.030939 -0.008952 0.833899
v -0.019758 -0.070881 -0.765633
v 0.030939 -0.008952 0.833899
v 0.000000 -0.010004 0.929401
v 0.000000 -0.077512 -0.868432
v 0.015470 -0.009478 0.881650
v 0.009879 -0.074197 -0.817033
v -0.009879 -0.074197 -0.817033
v -0.015470 -0.009478 0.881650
v -0.091728 -0.026539 0.083326
v 0.091728 -0.026539 0.091351
v -0.091728 -0.026539 0.453706
v 0.091728 -0.026539 0.453706
v -0.091728 -0.026539 0.053718
v 0.091728 -0.026539 0.587035
v -0.091728 -0.026539 0.587035
v -0.091728 -0.000000 0.377238
v -0.091728 0.067878 0.195045
v 0.091728 -0.000000 0.377238
v 0.091728 0.067878 0.195045
v -0.091728 -0.067878 0.377238
v 0.091728 -0.067878 0.377238
v 0.000000 0.190919 0.109385
v 0.000000 -0.075858 0.419054
v 0.018721 0.071868 0.209902
v 0.045864 -0.071868 0.398146
v -0.045864 -0.071868 0.398146
v -0.021639 0.071868 0.209902
v 0.301698 -0.107892 0.013583
v -0.329803 -0.099202 0.021914
v -0.091728 -0.026539 0.377238
v 0.091728 -0.026539 0.377238
v 0.051536 0.000000 -0.293654
v 0.051536 0.038136 -0.324902
v -0.051536 -0.038136 -0.293654
v 0.051536 -0.038136 -0.293654
v -0.051536 0.038136 -0.324902
v -0.051536 0.000000 -0.293654
v 0.000000 0.172560 -0.474448
v 0.000000 -0.042619 -0.330708
v 0.016191 0.040378 -0.343622
v 0.025768 -0.040378 -0.312181
v -0.025768 -0.040378 -0.312181
v -0.017220 0.040378 -0.343622
v 0.135100 -0.047281 -0.384176
v -0.122577 -0.049147 -0.382863
v -0.051536 -0.014910 -0.293654
v 0.051536 -0.014910 -0.293654
v 0.056654 0.000000 -0.249419
v 0.056654 0.041924 -0.287965
v -0.056654 -0.041924 -0.249419
v 0.056654 -0.041924 -0.249419
v -0.056654 0.041924 -0.287965
v -0.056654 0.000000 -0.249419
v 0.000000 0.060889 -0.269857
v 0.000000 -0.046852 -0.281272
v 0.016513 0.044388 -0.304130
v 0.028327 -0.044388 -0.265345
v -0.028327 -0.044388 -0.265345
v -0.017783 0.044388 -0.304130
v 0.056654 -0.008430 -0.249419
v 0.056654 -0.016391 -0.249419
v -0.056654 -0.008430 -0.249419
v -0.056654 -0.016391 -0.249419
v -0.046300 -0.006889 -0.338907
v -0.046300 -0.013396 -0.338907
v 0.046300 0.000000 -0.338907
v 0.046300 0.034262 -0.362689
v -0.046300 -0.034262 -0.338907
v 0.046300 -0.034262 -0.338907
v -0.046300 0.034262 -0.362689
v -0.046300 0.000000 -0.338907
v 0.000000 0.038290 -0.405357
v 0.000000 -0.038289 -0.381281
v 0.015861 0.036276 -0.384023
v 0.023150 -0.036276 -0.360094
v -0.023150 -0.036276 -0.360094
v -0.016645 0.036276 -0.384023
v 0.046300 -0.006889 -0.338907
v 0.046300 -0.013396 -0.338907
vt 0.812500 0.687500
vt 0.875000 0.687500
vt 0.875000 0.750000
vt 0.812500 0.750000
vt 0.500000 0.937500
vt 0.625000 0.937500
vt 0.625000 1.000000
vt 0.500000 1.000000
vt 0.500000 0.187500
vt 0.625000 0.187500
vt 0.625000 0.250000
vt 0.500000 0.250000
vt 0.312500 0.687500
vt 0.375000 0.687500
vt 0.375000 0.750000
vt 0.312500 0.750000
vt 0.500000 0.687500
vt 0.625000 0.687500
vt 0.625000 0.750000
vt 0.500000 0.750000
vt 0.500000 0.437500
vt 0.625000 0.437500
vt 0.625000 0.500000
vt 0.500000 0.500000
vt 0.498015 0.589703
vt 0.625000 0.589703
vt 0.625000 0.625000
vt 0.500000 0.625000
vt 0.312500 0.589703
vt 0.375000 0.589703
vt 0.375000 0.625000
vt 0.312500 0.625000
vt 0.500000 0.093750
vt 0.625000 0.093750
vt 0.625000 0.125000
vt 0.500000 0.125000
vt 0.811261 0.589949
vt 0.875000 0.589703
vt 0.875000 0.625000
vt 0.812500 0.625000
vt 0.500000 0.000000
vt 0.625000 0.000000
vt 0.625000 0.062500
vt 0.500000 0.062500
vt 0.500000 0.671875
vt 0.625000 0.671875
vt 0.312500 0.671875
vt 0.375000 0.671875
vt 0.812500 0.671875
vt 0.875000 0.671875
vt 0.812500 0.500000
vt 0.875000 0.500000
vt 0.875000 0.562500
vt 0.812500 0.562500
vt 0.312500 0.500000
vt 0.375000 0.500000
vt 0.375000 0.562500
vt 0.312500 0.562500
vt 0.625000 0.562500
vt 0.500000 0.562500
vt 0.500189 0.170717
vt 0.631066 0.170944
vt 0.474923 0.170717
vt 0.474865 0.187500
vt 0.474864 0.500000
vt 0.474864 0.562500
vt 0.474864 0.671875
vt 0.474865 0.687500
vt 0.474864 0.000000
vt 0.474865 0.062500
vt 0.474864 0.093750
vt 0.474864 0.125000
vt 0.475009 0.589703
vt 0.474864 0.625000
vt 0.474864 0.437500
vt 0.474544 0.750000
vt 0.474864 0.250000
vt 0.474892 0.937500
vt 0.474362 1.000000
vt 0.474892 0.812500
vt 0.500000 0.812500
vt 0.500000 0.875000
vt 0.475391 0.875000
vt 0.474865 0.312500
vt 0.500000 0.312500
vt 0.500000 0.375000
vt 0.475708 0.375000
vt 0.187500 0.500000
vt 0.250000 0.500000
vt 0.250000 0.562500
vt 0.187500 0.562500
vt 0.687500 0.500000
vt 0.750000 0.500000
vt 0.750000 0.562500
vt 0.687500 0.562500
vt 0.687500 0.671875
vt 0.750000 0.671875
vt 0.750000 0.687500
vt 0.687500 0.687500
vt 0.187500 0.671875
vt 0.250000 0.671875
vt 0.250000 0.687500
vt 0.187500 0.687500
vt 0.688275 0.589948
vt 0.750290 0.589406
vt 0.750000 0.625000
vt 0.687500 0.625000
vt 0.187500 0.589703
vt 0.250000 0.589703
vt 0.250000 0.625000
vt 0.187500 0.625000
vt 0.625000 0.312500
vt 0.625000 0.375000
vt 0.250000 0.750000
vt 0.187500 0.750000
vt 0.625000 0.812500
vt 0.625000 0.875000
vt 0.750000 0.750000
vt 0.687500 0.750000
vt 0.125000 0.687500
vt 0.125000 0.750000
vt 0.125000 0.589703
vt 0.125000 0.625000
vt 0.125000 0.671875
vt 0.125000 0.500000
vt 0.125000 0.562500
vt 0.812500 0.656250
vt 0.750000 0.656250
vt 0.187500 0.656250
vt 0.125000 0.656250
vt 0.312500 0.656250
vt 0.250000 0.656250
vt 0.687500 0.656250
vt 0.625000 0.656250
vt 0.474864 0.087086
vt 0.500000 0.087086
vt 0.500000 0.656250
vt 0.474864 0.656250
vt 0.875000 0.656250
vt 0.375000 0.656250
vt 0.625000 0.087068
vt 0.625000 0.078125
vt 0.500000 0.078125
vt 0.474864 0.078125
vt 0.750000 0.662914
vt 0.813503 0.663085
vt 0.125000 0.662927
vt 0.187500 0.662910
vt 0.250000 0.662893
vt 0.312500 0.662910
vt 0.625000 0.662928
vt 0.686364 0.663077
vt 0.474864 0.662914
vt 0.500000 0.662914
vt 0.875000 0.662923
vt 0.375000 0.662920
vt 0.451127 0.662914
vt 0.451127 0.671875
vt 0.451127 0.062500
vt 0.451127 0.078125
vt 0.451127 0.625000
vt 0.451127 0.656250
vt 0.451127 0.087086
vt 0.451127 0.093750
vt 0.451826 0.875000
vt 0.451163 0.937500
vt 0.451127 0.250000
vt 0.451127 0.312500
vt 0.452295 0.375000
vt 0.451127 0.437500
vt 0.449683 0.750000
vt 0.451169 0.812500
vt 0.450466 1.000000
vt 0.451127 0.187500
vt 0.451127 0.687500
vt 0.451127 0.500000
vt 0.452948 0.589703
vt 0.451127 0.125000
vt 0.449005 -0.000000
vt 0.451127 0.562500
vt 0.453322 0.170717
vt 0.371634 0.170717
vt 0.375000 0.187500
vt 0.375000 0.000000
vt 0.375000 0.062500
vt 0.375000 0.093750
vt 0.375000 0.125000
vt 0.375000 0.437500
vt 0.375000 0.250000
vt 0.375000 0.937500
vt 0.375000 1.000000
vt 0.375000 0.812500
vt 0.375000 0.875000
vt 0.375000 0.312500
vt 0.375000 0.375000
vt 0.375000 0.087086
vt 0.375000 0.078125
vt 0.374237 0.579216
vt 0.453322 0.579283
vt 0.452046 0.584553
vt 0.375000 0.584553
vt 0.375000 0.160297
vt 0.452948 0.160297
vt 0.452046 0.165447
vt 0.375000 0.165447
vt 0.475009 0.160297
vt 0.474946 0.165447
vt 0.474923 0.579283
vt 0.474946 0.584553
vt 0.749733 0.579529
vt 0.808897 0.579520
vt 0.812500 0.584553
vt 0.750000 0.584553
vt 0.123159 0.579149
vt 0.189516 0.579430
vt 0.187500 0.584553
vt 0.125000 0.584553
vt 0.250000 0.579642
vt 0.310484 0.579430
vt 0.312500 0.584553
vt 0.250000 0.584553
vt 0.626632 0.579068
vt 0.691259 0.579526
vt 0.687500 0.584553
vt 0.625000 0.584553
vt 0.500189 0.579283
vt 0.498993 0.584553
vt 0.498015 0.160297
vt 0.498993 0.165447
vt 0.625000 0.160297
vt 0.625000 0.165447
vt 0.877700 0.579085
vt 0.875000 0.584553
vn -0.2065 0.9728 0.1047
vn -0.2111 0.9714 0.1088
vn -0.1984 0.9752 0.0976
vn -0.9513 0.0000 0.3082
vn -0.9994 -0.0082 -0.0338
vn -0.9993 -0.0159 -0.0328
vn -0.9994 -0.0088 -0.0338
vn 0.3687 -0.9032 0.2197
vn 0.3838 -0.8939 0.2317
vn 0.3330 -0.9233 0.1914
vn 0.9318 0.3018 0.2015
vn 0.8712 0.4599 0.1719
vn 0.9483 0.2367 0.2115
vn 0.9799 -0.0516 -0.1926
vn 0.9754 -0.1012 -0.1958
vn 0.9750 -0.1050 -0.1960
vn 0.9805 -0.0428 -0.1920
vn 0.9863 0.1468 -0.0751
vn 0.9863 -0.1138 -0.1191
vn 0.9837 -0.1362 -0.1177
vn 0.9924 -0.0405 -0.1160
vn 0.1243 -0.9880 -0.0917
vn 0.1171 -0.9886 -0.0945
vn 0.1038 -0.9902 -0.0935
vn 0.1033 -0.9905 -0.0906
vn -0.9643 0.2646 -0.0123
vn -1.0000 -0.0000 0.0000
vn -0.5578 0.8299 -0.0074
vn -0.0874 0.9904 -0.1075
vn -0.0732 0.9916 -0.1066
vn -0.2453 0.9649 -0.0939
vn -0.9483 0.2367 0.2115
vn -0.8712 0.4599 0.1719
vn -0.9318 0.3018 0.2015
vn 0.9795 0.1984 0.0354
vn 1.0000 0.0000 0.0000
vn 0.0867 -0.9962 -0.0000
vn -0.4066 0.9095 0.0861
vn -0.0606 0.9982 -0.0034
vn -0.0657 0.9978 -0.0082
vn -0.0910 0.9958 -0.0109
vn 0.5567 0.7875 0.2645
vn 0.5719 0.7755 0.2676
vn 0.5692 0.7776 0.2671
vn -0.5567 -0.7875 0.2645
vn -0.5719 -0.7755 0.2676
vn -0.5692 -0.7776 0.2671
vn 0.9994 -0.0088 -0.0338
vn 0.9993 -0.0159 -0.0328
vn 0.9994 -0.0082 -0.0338
vn -0.9675 0.2012 -0.1531
vn -0.9904 -0.0654 -0.1218
vn -0.9911 -0.0519 -0.1226
vn -0.9926 -0.0259 -0.1188
vn -0.9505 0.2093 -0.2297
vn -0.9934 -0.0000 -0.1149
vn 0.9994 0.0000 -0.0349
vn 0.9941 -0.0127 0.1080
vn -0.9710 0.0000 0.2391
vn -0.9854 0.1662 -0.0378
vn 0.9995 0.0315 -0.0021
vn 0.9934 0.0000 -0.1149
vn 0.9820 0.0000 -0.1887
vn 0.9710 0.0000 0.2391
vn -0.9994 0.0000 -0.0349
vn 0.9513 0.0000 0.3082
vn 0.0000 0.0000 1.0000
vn -0.9820 0.0000 -0.1887
vn -0.9799 -0.0516 -0.1926
vn 0.0000 -0.2794 -0.9602
vn 0.0000 0.0000 -1.0000
vn 0.5567 -0.7875 0.2645
vn 0.0000 -0.9482 0.3178
vn 0.5692 -0.7776 0.2671
vn -0.5567 0.7875 0.2645
vn 0.0000 0.9482 0.3178
vn -0.5692 0.7776 0.2671
vn 0.4351 0.8968 0.0798
vn 0.0019 0.9974 0.0714
vn 0.0018 0.9999 -0.0140
vn 0.0918 0.9957 -0.0123
vn -0.0867 -0.9962 -0.0000
vn 0.0000 -1.0000 -0.0000
vn 0.5692 0.8221 -0.0092
vn 0.0209 0.9994 -0.0261
vn 0.0203 0.9961 -0.0859
vn 0.2671 0.9592 -0.0927
vn -0.1243 -0.9880 -0.0917
vn 0.0000 -0.9961 -0.0887
vn 0.0000 -0.9961 -0.0880
vn -0.1033 -0.9905 -0.0906
vn -0.9754 -0.1012 -0.1958
vn 0.0000 -0.4536 -0.8912
vn -0.3687 -0.9032 0.2197
vn 0.0000 -0.9802 0.1982
vn -0.3330 -0.9233 0.1914
vn 0.2065 0.9728 0.1047
vn -0.0000 0.9951 0.0984
vn 0.1984 0.9752 0.0976
vn 0.2111 0.9714 0.1088
vn 0.0845 0.9907 -0.1071
vn 0.0705 0.9918 -0.1062
vn 0.0585 0.9983 -0.0038
vn 0.0639 0.9979 -0.0089
vn -0.5719 0.7755 0.2676
vn -0.3838 -0.8939 0.2317
vn -0.9805 -0.0428 -0.1920
vn -0.9750 -0.1050 -0.1960
vn -0.1171 -0.9886 -0.0945
vn -0.1038 -0.9902 -0.0935
vn 0.5719 -0.7755 0.2676
vn 0.0460 0.2951 -0.9544
vn -0.6950 0.7155 -0.0707
vn -0.6652 0.7466 0.0047
vn -0.0024 0.8981 -0.4397
vn 0.0546 0.9985 0.0000
vn 0.6948 0.7166 -0.0613
vn 0.6729 0.7397 0.0042
vn -0.9070 -0.3218 -0.2718
vn -0.8815 0.4684 0.0599
vn 0.9678 0.2515 -0.0120
vn 0.9819 0.1857 -0.0365
vn -0.0568 0.9984 0.0000
vn -0.9756 0.2162 0.0386
vn -0.9934 0.0016 0.1144
vn 0.0143 0.9761 0.2169
vn -0.5658 0.8184 0.0998
vn 0.5859 0.8053 0.0905
vn 0.8788 -0.3877 -0.2784
vn 0.9018 0.4286 0.0558
vn 0.6776 -0.7291 0.0968
vn 0.9477 -0.3148 0.0531
vn -0.9487 -0.3118 0.0526
vn 0.9429 -0.3327 -0.0150
vn -0.6901 -0.7178 0.0922
vn -0.9429 -0.3328 -0.0146
vn -0.9781 0.0697 -0.1960
vn -0.9724 0.1195 -0.2006
vn 0.0000 0.5668 -0.8239
vn 0.9724 0.1195 -0.2006
vn -0.9991 0.0183 -0.0380
vn -0.9988 0.0281 -0.0397
vn 0.9781 0.0697 -0.1960
vn 0.9470 -0.3149 -0.0634
vn 0.9988 0.0281 -0.0397
vn 0.9991 0.0183 -0.0380
vn -0.9274 -0.3350 -0.1667
vn 0.9982 0.0425 -0.0422
vn 0.9511 0.2276 -0.2089
vn 0.9476 0.2410 -0.2098
vn -0.9982 0.0425 -0.0422
vn -0.9511 0.2276 -0.2089
vn 0.0000 0.7324 -0.6809
vn -0.9476 0.2410 -0.2098
vn 0.9265 -0.3372 -0.1670
vn 0.6375 -0.7700 -0.0285
vn -0.9463 -0.3170 -0.0630
vn -0.6212 -0.7834 -0.0200
vn -0.9998 0.0197 -0.0089
vn -0.8124 -0.4244 -0.3999
vn 0.9516 0.1934 -0.2388
vn 0.8449 -0.3668 -0.3894
vn 0.0073 0.9470 -0.3213
vn -0.6429 0.7330 -0.2221
vn -0.6696 0.7406 -0.0560
vn 0.0024 0.8645 -0.5026
vn -0.1779 -0.9791 -0.0988
vn -0.1879 -0.9776 -0.0947
vn -0.1531 -0.9838 -0.0929
vn -0.1520 -0.9836 -0.0970
vn 0.0000 -0.9959 -0.0905
vn 0.1879 -0.9776 -0.0947
vn 0.1531 -0.9838 -0.0929
vn 0.0000 -0.9960 -0.0894
vn 0.1488 0.9826 -0.1108
vn 0.6455 0.7330 -0.2146
vn 0.6735 0.7370 -0.0563
vn 0.1176 0.9871 -0.1091
vn 0.9645 0.2138 -0.1549
vn 0.9029 0.4243 -0.0688
vn -0.9883 0.1305 -0.0786
vn -0.9196 0.3861 -0.0723
vn -0.9863 -0.1138 -0.1191
vn -0.9881 -0.0955 -0.1202
vn -0.1527 0.9820 -0.1115
vn -0.1213 0.9865 -0.1097
vn 0.1779 -0.9791 -0.0988
vn 0.1520 -0.9836 -0.0970
vn 0.9904 -0.0654 -0.1218
vn 0.9881 -0.0955 -0.1202
vn -0.9924 -0.0405 -0.1160
vn -0.9837 -0.1362 -0.1177
vn 0.9926 -0.0259 -0.1188
vn 0.9911 -0.0519 -0.1226
vn 0.2061 -0.9743 -0.0906
vn 0.2205 -0.9701 -0.1016
vn -0.2525 0.9623 -0.1012
vn -0.2033 0.9724 -0.1143
vn 0.2561 0.9614 -0.1004
vn 0.0026 0.9948 -0.1020
vn -0.2061 -0.9743 -0.0906
vn 0.0000 -0.9959 -0.0908
vn 0.1989 0.9734 -0.1135
vn -0.2205 -0.9701 -0.1016
usemtl Material.001
s 1
f 55/1/1 2/2/2 3/3/2 60/4/3
f 56/5/4 60/6/4 3/7/4 6/8/4
f 7/9/5 8/10/6 9/11/6 10/12/7
f 44/13/8 12/14/9 13/15/9 52/16/10
f 15/17/11 1/18/12 4/19/12 5/20/13
f 45/21/14 46/22/15 16/23/16 17/24/17
f 163/25/18 164/26/19 20/27/20 21/28/21
f 172/29/22 166/30/23 24/31/24 53/32/25
f 67/33/26 68/34/27 27/35/27 28/36/27
f 174/37/28 167/38/29 27/39/30 59/40/31
f 6/41/32 3/42/33 2/43/33 26/44/34
f 87/45/35 88/46/36 1/18/36 15/17/36
f 82/47/37 90/48/37 12/14/37 44/13/37
f 84/49/38 86/50/39 2/2/40 55/1/41
f 63/51/42 9/52/43 8/53/43 65/54/44
f 49/55/45 30/56/46 23/57/46 47/58/47
f 17/24/48 16/23/49 19/59/49 18/60/50
f 186/61/51 185/62/52 8/10/53 7/9/54
f 179/63/55 186/61/51 7/9/54 92/64/56
f 93/65/57 17/24/48 18/60/50 94/66/57
f 110/67/58 87/45/35 15/17/36 96/68/36
f 97/69/59 6/41/32 26/44/34 98/70/59
f 107/71/60 67/33/26 28/36/27 91/72/27
f 175/73/61 163/25/18 21/28/21 95/74/62
f 104/75/63 45/21/14 17/24/17 93/65/63
f 96/68/64 15/17/11 5/20/13 100/76/64
f 92/64/65 7/9/5 10/12/7 99/77/65
f 106/78/4 56/5/4 6/8/4 97/79/4
f 103/80/66 51/81/66 33/82/67 101/83/67
f 105/84/68 62/85/69 36/86/70 102/87/71
f 66/88/72 42/89/73 38/90/73 64/91/74
f 46/92/75 37/93/76 40/94/76 48/95/77
f 81/96/78 79/97/79 31/98/80 50/99/81
f 83/100/82 80/101/83 34/102/83 61/103/82
f 171/104/84 169/105/85 41/106/86 54/107/87
f 173/108/88 170/109/89 39/110/90 58/111/91
f 62/85/69 63/112/92 37/113/93 36/86/70
f 61/103/94 34/102/95 35/114/95 57/115/96
f 51/81/66 43/116/66 32/117/67 33/82/67
f 50/99/97 31/98/98 32/118/98 43/119/99
f 1/18/100 50/99/97 43/119/99 4/19/100
f 5/20/66 4/19/66 43/116/66 51/81/66
f 164/26/101 171/104/84 54/107/87 20/27/102
f 88/46/103 81/96/78 50/99/81 1/18/104
f 16/23/105 46/92/75 48/95/77 19/59/105
f 100/76/66 5/20/66 51/81/66 103/80/66
f 102/87/71 36/86/70 45/21/14 104/75/63
f 42/89/73 49/55/45 47/58/47 38/90/73
f 80/101/83 82/47/37 44/13/37 34/102/83
f 170/109/89 172/29/22 53/32/25 39/110/90
f 36/86/70 37/113/93 46/22/15 45/21/14
f 34/102/95 44/13/8 52/16/10 35/114/95
f 11/120/106 61/103/94 57/115/96 14/121/106
f 10/12/107 9/11/108 63/112/92 62/85/69
f 165/122/109 173/108/88 58/111/91 25/123/110
f 89/124/82 83/100/82 61/103/82 11/120/82
f 29/125/111 66/88/72 64/91/74 22/126/111
f 99/77/68 10/12/107 62/85/69 105/84/68
f 101/83/67 33/82/67 56/5/4 106/78/4
f 37/93/76 63/51/42 65/54/44 40/94/76
f 79/97/79 84/49/38 55/1/41 31/98/80
f 169/105/85 174/37/28 59/40/31 41/106/86
f 33/82/67 32/117/67 60/6/4 56/5/4
f 31/98/98 55/1/1 60/4/3 32/118/98
f 41/106/112 59/40/113 78/127/114 73/128/115
f 25/123/82 58/111/82 77/129/82 71/130/82
f 39/110/83 53/32/37 76/131/37 74/132/83
f 20/27/116 54/107/117 75/133/118 70/134/116
f 58/111/82 39/110/83 74/132/83 77/129/82
f 54/107/117 41/106/112 73/128/115 75/133/118
f 144/135/119 131/136/120 67/33/26 107/71/60
f 95/74/36 21/28/36 69/137/121 108/138/122
f 59/40/113 27/39/123 68/139/123 78/127/114
f 53/32/37 24/31/37 72/140/37 76/131/37
f 21/28/36 20/27/36 70/134/36 69/137/121
f 131/136/120 132/141/27 68/34/27 67/33/26
f 26/44/27 2/43/27 86/142/27 85/143/124
f 98/70/27 26/44/27 85/143/124 109/144/125
f 137/145/126 142/146/127 84/49/38 79/97/79
f 135/147/82 141/148/82 83/100/82 89/124/82
f 138/149/83 140/150/37 82/47/37 80/101/83
f 134/151/116 139/152/128 81/96/78 88/46/103
f 141/148/82 138/149/83 80/101/83 83/100/82
f 139/152/128 137/145/126 79/97/79 81/96/78
f 143/153/129 133/154/130 87/45/35 110/67/58
f 142/146/127 132/155/123 86/50/39 84/49/38
f 140/150/37 136/156/37 90/48/37 82/47/37
f 133/154/130 134/151/36 88/46/36 87/45/35
f 146/157/131 143/153/129 110/67/58 127/158/132
f 130/159/27 98/70/27 109/144/125 126/160/133
f 114/161/36 95/74/36 108/138/122 125/162/134
f 145/163/135 144/135/119 107/71/60 124/164/136
f 118/165/67 101/83/67 106/78/4 123/166/4
f 116/167/137 99/77/68 105/84/68 122/168/138
f 119/169/139 102/87/71 104/75/63 121/170/140
f 117/171/66 100/76/66 103/80/66 120/172/66
f 122/168/138 105/84/68 102/87/71 119/169/139
f 120/172/66 103/80/66 101/83/67 118/165/67
f 123/166/4 106/78/4 97/79/4 115/173/4
f 111/174/141 92/64/65 99/77/65 116/167/142
f 129/175/64 96/68/64 100/76/64 117/171/64
f 121/170/140 104/75/63 93/65/63 112/176/143
f 176/177/144 175/73/61 95/74/62 114/161/62
f 124/164/136 107/71/60 91/72/27 128/178/27
f 115/179/59 97/69/59 98/70/59 130/159/59
f 127/158/132 110/67/58 96/68/36 129/175/36
f 112/176/145 93/65/57 94/66/57 113/180/146
f 180/181/147 179/63/55 92/64/56 111/174/56
f 183/182/56 180/181/147 111/174/56 22/183/56
f 30/56/148 112/176/145 113/180/146 23/57/148
f 90/48/36 127/158/132 129/175/36 12/14/36
f 14/184/59 115/179/59 130/159/59 11/185/59
f 71/186/27 124/164/136 128/178/27 25/187/27
f 166/30/62 176/177/144 114/161/62 24/31/62
f 49/188/149 121/170/140 112/176/143 30/56/150
f 12/14/64 129/175/64 117/171/64 13/15/64
f 22/183/151 111/174/141 116/167/142 29/189/151
f 57/190/4 123/166/4 115/173/4 14/191/4
f 52/192/66 120/172/66 118/165/67 35/193/67
f 66/194/152 122/168/138 119/169/139 42/195/153
f 13/15/66 117/171/66 120/172/66 52/192/66
f 42/195/153 119/169/139 121/170/140 49/188/149
f 29/189/154 116/167/137 122/168/138 66/194/152
f 35/193/67 118/165/67 123/166/4 57/190/4
f 135/196/27 145/163/135 124/164/136 71/186/27
f 24/31/36 114/161/36 125/162/134 72/140/36
f 11/185/27 130/159/27 126/160/133 89/197/27
f 136/156/36 146/157/131 127/158/132 90/48/36
f 72/140/36 125/162/134 146/157/131 136/156/36
f 89/197/27 126/160/133 145/163/135 135/196/27
f 126/160/133 109/144/125 144/135/119 145/163/135
f 125/162/134 108/138/122 143/153/129 146/157/131
f 69/137/121 70/134/36 134/151/36 133/154/130
f 76/131/37 72/140/37 136/156/37 140/150/37
f 78/127/114 68/139/123 132/155/123 142/146/127
f 108/138/122 69/137/121 133/154/130 143/153/129
f 75/133/118 73/128/115 137/145/126 139/152/128
f 77/129/82 74/132/83 138/149/83 141/148/82
f 70/134/116 75/133/118 139/152/128 134/151/116
f 74/132/83 76/131/37 140/150/37 138/149/83
f 71/130/82 77/129/82 141/148/82 135/147/82
f 73/128/115 78/127/114 142/146/127 137/145/126
f 85/143/124 86/142/27 132/141/27 131/136/120
f 109/144/125 85/143/124 131/136/120 144/135/119
f 184/198/62 194/199/155 162/200/156 150/201/62
f 165/202/56 178/203/157 161/204/158 149/205/56
f 178/203/157 177/206/159 160/207/160 161/204/158
f 194/199/155 193/208/161 159/209/162 162/200/156
f 187/210/163 192/211/164 158/212/165 153/213/166
f 183/214/167 191/215/168 157/216/169 149/217/170
f 188/218/171 190/219/172 156/220/173 154/221/174
f 182/222/175 189/223/176 155/224/177 148/225/178
f 191/215/168 188/218/171 154/221/174 157/216/169
f 189/223/176 187/210/163 153/213/166 155/224/177
f 193/208/161 181/226/179 147/227/180 159/209/162
f 177/206/159 168/228/181 152/229/182 160/207/160
f 168/228/181 167/230/183 151/231/184 152/229/182
f 192/211/164 185/232/185 151/233/186 158/212/165
f 190/219/172 184/198/187 150/201/188 156/220/173
f 181/226/179 182/222/189 148/225/190 147/227/180
f 28/36/191 27/35/192 167/230/183 168/228/181
f 91/72/56 28/36/191 168/228/181 177/206/159
f 128/178/56 91/72/56 177/206/159 178/203/157
f 25/187/56 128/178/56 178/203/157 165/202/56
f 150/201/62 162/200/156 176/177/144 166/30/62
f 162/200/156 159/209/162 175/73/61 176/177/144
f 153/213/166 158/212/165 174/37/28 169/105/85
f 149/217/170 157/216/169 173/108/88 165/122/109
f 154/221/174 156/220/173 172/29/22 170/109/89
f 148/225/178 155/224/177 171/104/84 164/26/101
f 157/216/169 154/221/174 170/109/89 173/108/88
f 155/224/177 153/213/166 169/105/85 171/104/84
f 159/209/162 147/227/180 163/25/18 175/73/61
f 158/212/165 151/233/186 167/38/29 174/37/28
f 156/220/173 150/201/188 166/30/23 172/29/22
f 147/227/180 148/225/190 164/26/19 163/25/18
f 18/60/193 19/59/194 182/222/189 181/226/179
f 47/58/195 23/57/196 184/198/187 190/219/172
f 65/54/197 8/53/198 185/232/185 192/211/164
f 94/66/62 18/60/193 181/226/179 193/208/161
f 48/95/199 40/94/200 187/210/163 189/223/176
f 64/91/201 38/90/202 188/218/171 191/215/168
f 19/59/203 48/95/199 189/223/176 182/222/175
f 38/90/202 47/58/195 190/219/172 188/218/171
f 22/126/204 64/91/201 191/215/168 183/214/167
f 40/94/200 65/54/197 192/211/164 187/210/163
f 113/180/62 94/66/62 193/208/161 194/199/155
f 23/57/62 113/180/62 194/199/155 184/198/62
f 149/205/56 161/204/158 180/181/147 183/182/56
f 161/204/158 160/207/160 179/63/55 180/181/147
f 160/207/160 152/229/182 186/61/51 179/63/55
f 152/229/182 151/231/184 185/62/52 186/61/51
