# Blender v2.81 (sub 16) OBJ File: 'rock1.blend'
# www.blender.org
mtllib rock1.mtl
o Cube
v 0.181106 0.559718 -0.181106
v 0.147703 -0.011229 -0.152826
v 0.104008 0.734768 0.134414
v 0.181106 -0.011229 0.181106
v -0.181106 0.544507 -0.192522
v -0.181106 -0.011229 -0.181106
v -0.105898 0.734768 0.133530
v -0.181106 -0.011229 0.181106
v 0.181106 0.169878 -0.147918
v -0.181106 0.169878 0.181106
v 0.181106 0.169878 0.181106
v -0.181106 0.224472 -0.149147
v -0.181106 -0.011229 0.000000
v 0.181106 0.734768 0.000000
v -0.181106 0.734768 0.000000
v 0.181106 -0.011229 0.000000
v 0.292336 0.210427 -0.095752
v -0.250316 0.295012 0.000000
v 0.000000 -0.011229 -0.181106
v 0.000000 0.734768 0.181106
v 0.000000 -0.011229 0.181106
v 0.000000 0.525406 -0.266972
v 0.000000 0.169878 -0.181106
v 0.000000 0.411894 0.327434
v 0.000000 -0.011229 0.000000
v 0.000000 0.802153 0.000000
vt 0.750000 0.625000
vt 0.875000 0.625000
vt 0.875000 0.750000
vt 0.750000 0.750000
vt 0.500000 0.875000
vt 0.625000 0.875000
vt 0.625000 1.000000
vt 0.500000 1.000000
vt 0.500000 0.125000
vt 0.625000 0.125000
vt 0.625000 0.250000
vt 0.500000 0.250000
vt 0.250000 0.625000
vt 0.375000 0.625000
vt 0.375000 0.750000
vt 0.250000 0.750000
vt 0.500000 0.625000
vt 0.625000 0.625000
vt 0.625000 0.750000
vt 0.500000 0.750000
vt 0.500000 0.375000
vt 0.625000 0.375000
vt 0.625000 0.500000
vt 0.500000 0.500000
vt 0.375000 0.375000
vt 0.375000 0.500000
vt 0.375000 0.125000
vt 0.375000 0.250000
vt 0.375000 0.875000
vt 0.375000 1.000000
vt 0.375000 0.000000
vt 0.500000 0.000000
vt 0.250000 0.500000
vt 0.625000 0.000000
vt 0.750000 0.500000
vt 0.875000 0.500000
vt 0.125000 0.500000
vt 0.125000 0.625000
vt 0.125000 0.750000
vn -0.2615 0.9291 0.2615
vn -0.6638 0.2128 0.7169
vn -0.9650 0.0735 -0.2516
vn 0.0000 -1.0000 0.0000
vn 0.8957 0.1358 0.4235
vn 0.3215 -0.1494 -0.9351
vn 0.1838 -0.0036 -0.9830
vn 0.9537 -0.2128 0.2128
vn -0.9770 -0.1141 -0.1804
vn -0.2291 -0.2291 0.9461
vn -0.9804 -0.1392 0.1392
vn 0.7869 -0.3904 -0.4780
vn 0.8383 0.1381 -0.5274
vn -0.8753 0.1476 0.4605
vn -0.2334 0.6820 -0.6931
vn 0.2266 0.6859 -0.6916
vn 0.2291 -0.2291 0.9461
vn -0.0762 0.0762 -0.9942
vn -0.3106 -0.1786 -0.9336
vn 0.6654 0.2133 0.7154
vn 0.2624 0.9286 0.2624
usemtl Material
s off
f 26/1/1 15/2/1 7/3/1 20/4/1
f 24/5/2 20/6/2 7/7/2 10/8/2
f 18/9/3 15/10/3 5/11/3 12/12/3
f 25/13/4 16/14/4 4/15/4 21/16/4
f 17/17/5 14/18/5 3/19/5 11/20/5
f 23/21/6 22/22/6 1/23/6 9/24/6
f 19/25/7 23/21/7 9/24/7 2/26/7
f 16/14/8 17/17/8 11/20/8 4/15/8
f 13/27/9 18/9/9 12/12/9 6/28/9
f 21/29/10 24/5/10 10/8/10 8/30/10
f 8/31/11 10/32/11 18/9/11 13/27/11
f 2/26/12 9/24/12 17/17/12 16/14/12
f 9/24/13 1/23/13 14/18/13 17/17/13
f 19/33/4 2/26/4 16/14/4 25/13/4
f 10/32/14 7/34/14 15/10/14 18/9/14
f 22/35/15 5/36/15 15/2/15 26/1/15
f 1/23/16 22/35/16 26/1/16 14/18/16
f 6/37/4 19/33/4 25/13/4 13/38/4
f 4/15/17 11/20/17 24/5/17 21/29/17
f 6/28/18 12/12/18 23/21/18 19/25/18
f 12/12/19 5/11/19 22/22/19 23/21/19
f 13/38/4 25/13/4 21/16/4 8/39/4
f 11/20/20 3/19/20 20/6/20 24/5/20
f 14/18/21 26/1/21 20/4/21 3/19/21
