# Blender v2.81 (sub 16) OBJ File: 'seamushroom.blend'
# www.blender.org
mtllib seamushroom.mtl
o Cylinder_Cylinder.001
v 0.020705 0.936357 -0.157761
v 0.025462 -0.007840 -0.258522
v 0.238322 -0.008094 -0.127386
v 0.175895 -0.008476 0.214329
v 0.098302 0.939579 0.128111
v -0.140216 -0.007948 0.224058
v -0.264189 -0.007975 0.007894
v -0.154031 0.935613 0.010231
v -0.166099 -0.007892 -0.202393
v 0.265104 0.700112 -0.071283
v 0.071283 0.700112 0.265104
v -0.220298 0.699473 0.137862
v -0.238955 0.699454 -0.098979
v -0.026040 0.699683 -0.264391
v 0.361126 0.698953 -0.383374
v 0.403341 0.699117 0.331013
v -0.532682 0.717972 0.050895
v -0.383360 0.698925 -0.361114
v -0.012788 0.699288 -0.513980
v 0.235987 0.819218 -0.418246
v 0.491069 0.821037 -0.033113
v 0.294696 0.818111 0.380460
v -0.060644 0.818111 0.477408
v -0.441017 0.821037 0.218516
v -0.398271 0.818041 -0.281353
v -0.085055 0.817845 -0.468867
v 0.207992 0.744604 -0.502137
v 0.457881 0.744602 -0.289737
v 0.537358 0.720532 0.010305
v 0.417668 0.746077 0.352551
v 0.104603 0.720435 0.525877
v -0.206136 0.720729 0.497655
v -0.456573 0.716494 0.282255
v -0.503468 0.743544 -0.203125
v -0.219227 0.746545 -0.508512
v 0.183846 0.345791 -0.321802
v 0.366737 0.345804 -0.072949
v 0.307528 0.344035 0.200739
v 0.136848 0.347530 0.340773
v -0.076545 0.344140 0.358096
v -0.286652 0.345795 0.235199
v -0.366807 0.345785 -0.000033
v -0.269321 0.348834 -0.260711
v -0.035722 0.345777 -0.362699
vt 0.950321 1.000000
vt 0.918169 0.937500
vt 1.000000 0.937500
vt 0.760723 0.937500
vt 0.603928 1.000000
vt 0.604804 0.937500
vt 0.479825 0.937500
vt 0.323181 0.937500
vt 0.261205 1.000000
vt 0.152358 0.937500
vt 0.057448 1.000000
vt 0.028448 0.937500
vt 0.037874 0.750000
vt 0.015625 0.625000
vt 0.127313 0.625000
vt 0.187233 0.750000
vt 0.250085 0.625000
vt 0.338682 0.750000
vt 0.359358 0.625000
vt 0.560870 0.625000
vt 0.542576 0.750000
vt 0.466556 0.625000
vt 0.657871 0.625000
vt 0.791639 0.750000
vt 0.780946 0.625000
vt 0.917306 0.625000
vt 1.000000 0.625000
vt 0.973117 0.750000
vt 0.130066 0.875000
vt 0.437463 0.893420
vt 0.640592 0.875000
vt 0.879491 0.875000
vt 0.064518 0.906250
vt 0.189097 0.906250
vt 0.262827 0.900644
vt 0.337905 0.889670
vt 0.530989 0.892942
vt 0.638408 0.906250
vt 0.748974 0.894734
vt 0.839847 0.906250
vt 0.937381 0.906250
vt 0.984375 0.875000
vt 0.013020 0.875000
vt 0.828929 0.500000
vt 0.976915 0.500000
vt 0.610603 0.500000
vt 0.410739 0.500000
vt 0.254490 0.500000
vt 0.109342 0.500000
vt 0.277016 0.451642
vt 0.034265 0.234925
vt 0.354225 0.113109
vt 0.773054 0.483552
vt 0.948460 0.357376
vt 0.889357 0.082854
vt 0.627088 0.054250
vt 0.519151 0.243403
vt 0.601694 0.430821
vt 1.000000 0.906250
vt 0.015625 0.500000
vn 0.0546 0.9268 -0.3716
vn 0.2811 0.9406 -0.1906
vn 0.3487 0.9213 0.1721
vn 0.1002 0.9247 0.3672
vn -0.1665 0.9524 0.2554
vn -0.3949 0.9179 -0.0393
vn -0.1773 0.9382 -0.2971
vn -0.3839 0.2569 -0.8869
vn -0.9113 0.2349 -0.3381
vn -0.9147 0.2574 0.3117
vn 0.0754 0.2226 0.9720
vn 0.6135 0.2731 0.7410
vn 0.9410 0.2690 0.2053
vn 0.7846 0.2278 -0.5766
vn 0.1769 0.2589 -0.9496
vn 0.0019 -1.0000 0.0010
vn -0.0240 -0.9979 0.0599
vn -0.0027 -1.0000 -0.0015
vn -0.0008 -1.0000 0.0035
vn -0.6982 0.3067 -0.6469
vn -0.9007 0.3159 0.2983
vn -0.5743 0.4868 0.6582
vn -0.0853 0.3234 0.9424
vn 0.4189 0.3991 0.8156
vn 0.8321 0.4930 0.2542
vn 0.9189 0.3295 -0.2170
vn 0.5520 0.5230 -0.6494
vn 0.1952 -0.8045 -0.5610
vn 0.5801 -0.7852 -0.2167
vn -0.5052 -0.8509 -0.1438
vn -0.2057 -0.8408 -0.5007
vn 0.4888 -0.3610 -0.7942
vn 0.9182 -0.3589 0.1673
vn 0.0281 -0.3601 0.9325
vn -0.8123 -0.3509 0.4659
vn -0.8602 -0.3145 -0.4014
vn 0.2575 0.9629 -0.0807
vn -0.1560 0.9404 0.3023
vn -0.2074 0.9551 -0.2114
vn -0.0120 0.9999 -0.0080
vn -0.0007 -1.0000 -0.0007
vn -0.4173 0.3508 0.8383
vn -0.5664 0.3851 -0.7286
vn -0.9312 0.3571 0.0733
vn -0.0617 -0.9980 0.0094
vn 0.7797 0.4361 0.4493
vn 0.5012 0.4200 -0.7566
vn 0.0017 -1.0000 0.0017
vn -0.0483 -0.9984 0.0286
vn -0.6590 0.7510 -0.0404
vn -0.0350 -0.9976 0.0603
vn -0.0081 -0.9969 0.0787
vn -0.0189 -0.9966 0.0801
vn 0.0841 -0.9960 -0.0314
vn 0.0675 -0.9974 0.0245
vn -0.0014 -1.0000 0.0015
vn -0.2922 0.8219 -0.4890
vn 0.0610 0.6046 -0.7942
vn -0.3931 0.7090 0.5855
vn 0.1933 0.6787 0.7086
vn 0.5313 0.8070 0.2580
vn 0.4585 0.8337 -0.3076
vn -0.3361 -0.2833 -0.8982
vn 0.0155 0.1815 -0.9833
vn 0.6362 0.1869 -0.7485
vn 0.8509 -0.4101 0.3282
vn 0.4542 -0.4822 0.7491
vn -0.6748 0.3938 -0.6242
vn 0.1773 -0.2498 -0.9519
vn 0.7899 -0.1973 -0.5806
vn 0.9209 -0.3363 0.1971
vn 0.6188 -0.2018 0.7592
vn 0.0816 -0.3256 0.9420
vn -0.4927 -0.2304 0.8392
vn -0.9144 -0.2583 0.3116
vn -0.9011 -0.2690 -0.3401
usemtl None
s off
f 1/1/1 20/2/1 26/3/1
f 20/2/2 1/1/2 21/4/2
f 21/4/3 5/5/3 22/6/3
f 22/6/4 5/5/4 23/7/4
f 23/7/5 5/5/5 24/8/5
f 24/8/6 8/9/6 25/10/6
f 1/11/7 26/12/7 25/10/7
f 14/13/8 44/14/8 43/15/8
f 13/16/9 43/15/9 42/17/9
f 12/18/10 42/17/10 41/19/10
f 39/20/11 11/21/11 40/22/11
f 11/21/12 39/20/12 38/23/12
f 10/24/13 38/23/13 37/25/13
f 36/26/14 10/24/14 37/25/14
f 44/27/15 14/28/15 36/26/15
f 13/16/16 18/29/16 14/13/16
f 32/30/17 12/18/17 11/21/17
f 16/31/18 11/21/18 10/24/18
f 15/32/19 10/24/19 14/28/19
f 25/10/20 35/33/20 34/34/20
f 24/8/21 17/35/21 33/36/21
f 32/30/22 24/8/22 33/36/22
f 23/7/23 32/30/23 31/37/23
f 30/38/24 22/6/24 31/37/24
f 29/39/25 21/4/25 30/38/25
f 28/40/26 21/4/26 29/39/26
f 27/41/27 20/2/27 28/40/27
f 27/41/28 15/32/28 19/42/28
f 28/40/29 29/39/29 15/32/29
f 34/34/30 18/29/30 17/35/30
f 35/33/31 19/43/31 18/29/31
f 36/26/32 3/44/32 2/45/32
f 3/44/33 37/25/33 4/46/33
f 40/22/34 6/47/34 4/46/34
f 41/19/35 7/48/35 6/47/35
f 43/15/36 9/49/36 7/48/36
f 1/1/37 5/5/37 21/4/37
f 5/5/38 8/9/38 24/8/38
f 8/9/39 1/11/39 25/10/39
f 1/50/40 8/51/40 5/52/40
f 2/53/41 3/54/41 4/55/41 6/56/41 7/57/41 9/58/41
f 41/19/42 40/22/42 11/21/42 12/18/42
f 43/15/43 13/16/43 14/13/43
f 12/18/44 13/16/44 42/17/44
f 17/35/45 13/16/45 12/18/45 33/36/45
f 10/24/46 11/21/46 38/23/46
f 14/28/47 10/24/47 36/26/47
f 14/13/48 18/29/48 19/43/48
f 17/35/49 18/29/49 13/16/49
f 34/34/50 17/35/50 24/8/50 25/10/50
f 32/30/51 33/36/51 12/18/51
f 11/21/52 31/37/52 32/30/52
f 16/31/53 31/37/53 11/21/53
f 29/39/54 16/31/54 10/24/54
f 15/32/55 29/39/55 10/24/55
f 19/42/56 15/32/56 14/28/56
f 25/10/57 26/12/57 35/33/57
f 27/41/58 35/59/58 26/3/58 20/2/58
f 23/7/59 24/8/59 32/30/59
f 22/6/60 23/7/60 31/37/60
f 21/4/61 22/6/61 30/38/61
f 20/2/62 21/4/62 28/40/62
f 44/14/63 2/60/63 9/49/63 43/15/63
f 19/42/64 35/59/64 27/41/64
f 27/41/65 28/40/65 15/32/65
f 29/39/66 30/38/66 16/31/66
f 16/31/67 30/38/67 31/37/67
f 34/34/68 35/33/68 18/29/68
f 44/27/69 36/26/69 2/45/69
f 36/26/70 37/25/70 3/44/70
f 4/46/71 37/25/71 38/23/71
f 38/23/72 39/20/72 4/46/72
f 39/20/73 40/22/73 4/46/73
f 40/22/74 41/19/74 6/47/74
f 41/19/75 42/17/75 7/48/75
f 42/17/76 43/15/76 7/48/76
