# Blender v2.81 (sub 16) OBJ File: 'starfish.blend'
# www.blender.org
mtllib starfish.mtl
o Circle
v 0.000000 0.130126 -0.469214
v -0.446249 0.130126 -0.144995
v -0.275797 0.130126 0.379602
v 0.275797 0.130126 0.379602
v 0.446249 0.130126 -0.144995
v 0.000000 0.360188 -0.469214
v -0.446249 0.360188 -0.144995
v -0.275797 0.360188 0.379602
v 0.275797 0.360188 0.379602
v 0.446249 0.360188 -0.144995
v -2.113224 0.041854 0.651613
v -2.092642 0.041854 0.714956
v -2.113224 0.069633 0.651613
v -2.092642 0.069633 0.714956
v -0.040192 -0.010108 2.155275
v 0.040192 -0.010108 2.155275
v -0.040192 0.023419 2.155275
v 0.040192 0.023419 2.155275
v 1.797561 0.008199 0.648290
v 1.835313 0.008199 0.532102
v 1.797561 0.059153 0.648290
v 1.835313 0.059153 0.532102
v -1.130235 -0.040365 -1.696514
v -1.264219 -0.040365 -1.599169
v -1.130235 0.028711 -1.696514
v -1.264219 0.028711 -1.599169
v 1.330238 -0.046696 -1.997632
v 1.470604 -0.046696 -1.895650
v 1.330238 0.025669 -1.997632
v 1.470604 0.025669 -1.895650
v 0.616752 0.055188 -1.256509
v 0.997899 0.055188 -0.979590
v 0.997899 0.251687 -0.979590
v 0.616752 0.251687 -1.256509
v -0.971093 0.037269 -0.891064
v -0.547368 0.037269 -1.198918
v -0.547369 0.255719 -1.198918
v -0.971093 0.255719 -0.891064
v -1.325580 0.270585 0.192521
v -1.185578 0.270585 0.623404
v -1.185578 0.081621 0.623404
v -1.325580 0.081621 0.192521
v 0.216853 0.064449 1.318511
v -0.216853 0.064449 1.318511
v -0.216853 0.245342 1.318511
v 0.216853 0.245342 1.318511
v 1.075890 0.268588 0.602557
v 1.224587 0.268588 0.144913
v 1.224587 0.067888 0.144913
v 1.075890 0.067888 0.602557
v -0.223124 0.205667 -0.307104
v -0.223124 0.435729 -0.307104
v -1.197227 -0.041242 -1.647842
v -1.197227 0.031285 -1.647842
v -0.759231 0.331260 -1.044991
v -0.759231 0.112811 -1.044991
v -0.361023 0.215754 0.117303
v -0.361023 0.445816 0.117303
v -2.102933 0.045942 0.683284
v -2.102933 0.081226 0.683284
v -1.255579 0.167249 0.407962
v -1.255579 0.356213 0.407962
v 0.000000 0.230495 0.379602
v 0.000000 0.460557 0.379602
v 0.000000 -0.007164 2.155275
v 0.000000 0.031750 2.155275
v 0.000000 0.345711 1.318511
v 0.000000 0.164819 1.318511
v 0.361023 0.262297 0.117303
v 0.361023 0.492359 0.117303
v 1.816437 0.007074 0.590196
v 1.816437 0.090162 0.590196
v 1.150238 0.200059 0.373735
v 1.150238 0.400758 0.373735
v 0.223124 0.234456 -0.307104
v 0.223124 0.464518 -0.307104
v 1.400421 -0.042938 -1.946641
v 1.400421 0.029427 -1.946641
v 0.807325 0.356017 -1.118050
v 0.807325 0.159518 -1.118050
vt 0.000000 0.000000
vt 0.000000 0.000000
vt 0.000000 0.000000
vt 0.000000 0.000000
vt 0.000000 0.000000
vt 0.000000 0.000000
vt 0.000000 0.000000
vt 0.000000 0.000000
vt 0.000000 0.000000
vt 0.000000 0.000000
vt 0.000000 0.000000
vt 0.000000 0.000000
vt 0.000000 0.000000
vt 0.000000 0.000000
vt 0.000000 0.000000
vt 0.000000 0.000000
vt 0.000000 0.000000
vt 0.000000 0.000000
vt 0.000000 0.000000
vt 0.000000 0.000000
vt 0.000000 0.000000
vt 0.000000 0.000000
vt 0.000000 0.000000
vt 0.000000 0.000000
vt 0.000000 0.000000
vt 0.000000 0.000000
vt 0.000000 0.000000
vt 0.000000 0.000000
vt 0.000000 0.000000
vt 0.000000 0.000000
vt 0.000000 0.000000
vt 0.000000 0.000000
vt 0.000000 0.000000
vt 0.000000 0.000000
vt 0.000000 0.000000
vt 0.000000 0.000000
vt 0.000000 0.000000
vt 0.000000 0.000000
vt 0.000000 0.000000
vt 0.000000 0.000000
vt 0.000000 0.000000
vt 0.000000 0.000000
vt 0.000000 0.000000
vt 0.000000 0.000000
vt 0.000000 0.000000
vt 0.000000 0.000000
vt 0.000000 0.000000
vt 0.000000 0.000000
vt 0.000000 0.000000
vt 0.000000 0.000000
vt 0.000000 0.000000
vt 0.000000 0.000000
vt 0.000000 0.000000
vt 0.000000 0.000000
vt 0.000000 0.000000
vt 0.000000 0.000000
vt 0.000000 0.000000
vt 0.000000 0.000000
vt 0.000000 0.000000
vt 0.000000 0.000000
vt 0.000000 0.000000
vt 0.000000 0.000000
vt 0.000000 0.000000
vt 0.000000 0.000000
vt 0.000000 0.000000
vt 0.000000 0.000000
vt 0.000000 0.000000
vt 0.000000 0.000000
vt 0.000000 0.000000
vt 0.000000 0.000000
vt 0.000000 0.000000
vt 0.000000 0.000000
vt 0.000000 0.000000
vt 0.000000 0.000000
vt 0.000000 0.000000
vt 0.000000 0.000000
vt 0.000000 0.000000
vt 0.000000 0.000000
vt 0.000000 0.000000
vt 0.000000 0.000000
vn 0.0322 -0.9994 0.0117
vn -0.0322 0.9994 -0.0117
vn 0.1596 -0.9358 0.3143
vn -0.3673 -0.9138 -0.1734
vn 0.2713 -0.9623 0.0188
vn 0.2065 0.8202 0.5336
vn -0.3674 0.9000 -0.2347
vn -0.9511 0.0000 0.3090
vn 0.1004 0.0000 0.9949
vn -0.5036 0.0000 -0.8640
vn 0.0140 -0.9384 -0.3452
vn 0.0000 0.0000 1.0000
vn -0.9784 0.0000 0.2066
vn -0.3692 0.8731 0.3185
vn 0.9784 0.0000 0.2066
vn 0.9511 0.0000 0.3090
vn 0.5354 0.0000 -0.8446
vn -0.3216 -0.8964 0.3050
vn -0.0632 0.0000 0.9980
vn -0.5878 0.0000 -0.8090
vn -0.0370 0.9142 -0.4035
vn -0.9240 0.0000 0.3825
vn 0.6493 0.0000 -0.7605
vn 0.5878 0.0000 -0.8090
vn 0.8887 0.0000 0.4586
vn 0.4074 0.9124 -0.0401
vn -0.7204 0.0000 -0.6935
vn -0.7872 0.0000 -0.6167
vn 0.3679 0.9204 0.1326
vn 0.8342 0.0000 0.5514
vn 0.2605 -0.9233 0.2823
vn 0.8000 0.0000 -0.6001
vn -0.8179 0.0000 0.5754
vn 0.1519 0.9567 -0.2483
vn 0.2763 -0.9579 -0.0777
vn -0.0452 -0.9450 -0.3241
vn -0.3583 0.0000 -0.9336
vn 0.2588 0.0000 0.9659
vn -0.1926 0.9419 -0.2751
vn 0.9980 0.0000 0.0627
vn -0.3744 0.9189 0.1242
vn -0.9980 0.0000 0.0627
vn -0.3762 -0.9234 -0.0764
vn -0.2684 0.0000 0.9633
vn -0.2129 -0.8876 0.4086
vn 0.3490 0.0000 -0.9371
vn -0.0379 0.8850 0.4640
vn -0.1592 -0.9579 0.2388
vn -0.2831 0.9567 0.0677
vn -0.3723 0.9142 -0.1599
vn -0.0660 -0.9623 0.2638
vn 0.0059 0.9419 0.3357
vn 0.1539 -0.9450 0.2887
vn 0.2142 -0.9384 0.2711
vn -0.1593 0.9000 0.4058
vn 0.3762 -0.9234 -0.0764
vn 0.3744 0.9189 0.1242
vn 0.3692 0.8731 0.3185
vn 0.3673 -0.9138 -0.1734
vn 0.2420 0.8850 -0.3977
vn 0.0679 -0.8876 -0.4557
vn -0.0809 -0.8964 -0.4357
vn 0.4807 0.8202 -0.3103
vn -0.3507 -0.9230 -0.1580
vn -0.2416 0.9207 -0.3066
vn -0.0904 0.9135 -0.3968
vn -0.3506 -0.9351 -0.0510
usemtl None
s off
f 2/1/1 51/2/1 1/3/1 75/4/1 5/5/1 69/6/1 4/7/1 63/8/1 3/9/1 57/10/1
f 7/11/2 58/12/2 8/13/2 64/14/2 9/15/2 70/16/2 10/17/2 76/18/2 6/19/2 52/20/2
f 80/21/3 31/22/3 27/23/3 77/24/3
f 68/25/4 43/26/4 16/27/4 65/28/4
f 56/29/5 35/30/5 24/31/5 53/32/5
f 74/33/6 47/34/6 21/35/6 72/36/6
f 62/37/7 39/38/7 13/39/7 60/40/7
f 59/41/8 12/42/8 14/43/8 60/40/8
f 41/44/9 40/45/9 14/43/9 12/42/9
f 39/38/10 42/46/10 11/47/10 13/39/10
f 61/48/11 41/44/11 12/42/11 59/41/11
f 65/28/12 16/27/12 18/49/12 66/50/12
f 45/51/13 44/52/13 15/53/13 17/54/13
f 67/55/14 45/51/14 17/54/14 66/50/14
f 43/26/15 46/56/15 18/49/15 16/27/15
f 71/57/16 20/58/16 22/59/16 72/36/16
f 49/60/17 48/61/17 22/59/17 20/58/17
f 73/62/18 49/60/18 20/58/18 71/57/18
f 47/34/19 50/63/19 19/64/19 21/35/19
f 53/32/20 24/31/20 26/65/20 54/66/20
f 55/67/21 37/68/21 25/69/21 54/66/21
f 35/30/22 38/70/22 26/65/22 24/31/22
f 37/68/23 36/71/23 23/72/23 25/69/23
f 77/24/24 27/23/24 29/73/24 78/74/24
f 33/75/25 32/76/25 28/77/25 30/78/25
f 79/79/26 33/75/26 30/78/26 78/74/26
f 31/22/27 34/80/27 29/73/27 27/23/27
f 1/3/28 6/19/28 34/80/28 31/22/28
f 76/18/29 10/17/29 33/75/29 79/79/29
f 10/17/30 5/5/30 32/76/30 33/75/30
f 75/4/31 1/3/31 31/22/31 80/21/31
f 6/19/32 1/3/32 36/71/32 37/68/32
f 2/1/33 7/11/33 38/70/33 35/30/33
f 52/20/34 6/19/34 37/68/34 55/67/34
f 51/2/35 2/1/35 35/30/35 56/29/35
f 57/10/36 3/9/36 41/44/36 61/48/36
f 7/11/37 2/1/37 42/46/37 39/38/37
f 3/9/38 8/13/38 40/45/38 41/44/38
f 58/12/39 7/11/39 39/38/39 62/37/39
f 4/7/40 9/15/40 46/56/40 43/26/40
f 64/14/41 8/13/41 45/51/41 67/55/41
f 8/13/42 3/9/42 44/52/42 45/51/42
f 63/8/43 4/7/43 43/26/43 68/25/43
f 9/15/44 4/7/44 50/63/44 47/34/44
f 69/6/45 5/5/45 49/60/45 73/62/45
f 5/5/46 10/17/46 48/61/46 49/60/46
f 70/16/47 9/15/47 47/34/47 74/33/47
f 1/3/48 51/2/48 56/29/48 36/71/48
f 7/11/49 52/20/49 55/67/49 38/70/49
f 38/70/50 55/67/50 54/66/50 26/65/50
f 23/72/20 53/32/20 54/66/20 25/69/20
f 36/71/51 56/29/51 53/32/51 23/72/51
f 8/13/52 58/12/52 62/37/52 40/45/52
f 2/1/53 57/10/53 61/48/53 42/46/53
f 42/46/54 61/48/54 59/41/54 11/47/54
f 11/47/8 59/41/8 60/40/8 13/39/8
f 40/45/55 62/37/55 60/40/55 14/43/55
f 3/9/56 63/8/56 68/25/56 44/52/56
f 9/15/57 64/14/57 67/55/57 46/56/57
f 46/56/58 67/55/58 66/50/58 18/49/58
f 15/53/12 65/28/12 66/50/12 17/54/12
f 44/52/59 68/25/59 65/28/59 15/53/59
f 10/17/60 70/16/60 74/33/60 48/61/60
f 4/7/61 69/6/61 73/62/61 50/63/61
f 50/63/62 73/62/62 71/57/62 19/64/62
f 19/64/16 71/57/16 72/36/16 21/35/16
f 48/61/63 74/33/63 72/36/63 22/59/63
f 5/5/64 75/4/64 80/21/64 32/76/64
f 6/19/65 76/18/65 79/79/65 34/80/65
f 34/80/66 79/79/66 78/74/66 29/73/66
f 28/77/24 77/24/24 78/74/24 30/78/24
f 32/76/67 80/21/67 77/24/67 28/77/67
