# Blender v2.81 (sub 16) OBJ File: ''
# www.blender.org
mtllib underwater_plant.mtl
o Cube.001
v -0.000000 0.436781 0.233925
v -0.233925 0.436781 0.000000
v -0.212677 0.436781 0.163717
v -0.265984 0.202856 0.224351
v -0.291586 0.317673 0.474390
v -0.256196 0.472970 0.434136
v -0.298595 0.202856 -0.003453
v -0.470919 0.503592 -0.087529
v -0.481421 0.312062 -0.142571
v 0.166434 -0.031069 -0.008697
v 0.119668 -0.031069 0.086226
v 0.007408 -0.031069 0.150329
v 0.311450 0.202856 -0.003453
v 0.233925 0.436781 0.000000
v 0.410624 0.494056 0.087056
v 0.474233 0.260131 0.111848
v 0.006427 0.250185 -0.308476
v 0.000000 0.436781 -0.233925
v 0.126304 0.520485 -0.485679
v 0.172170 0.361163 -0.540443
v -0.110499 0.370207 -0.553723
v -0.080868 0.512719 -0.479172
v -0.151618 -0.031069 -0.008697
v -0.130853 -0.031069 0.121060
v 0.006427 0.202856 0.301569
v 0.221749 0.202856 0.178615
v 0.323848 0.325708 0.451211
v 0.189003 0.325708 0.528211
v 0.165132 0.436781 0.139630
v 0.164819 0.436781 -0.151236
v -0.106792 -0.031069 -0.130066
v 0.007408 -0.031069 -0.167723
v 0.535822 0.404189 -0.139024
v 0.398122 0.492306 -0.075028
v 0.119455 -0.031069 -0.111510
v -0.459197 0.503090 0.197629
v -0.518952 0.269165 0.213212
v -0.167987 0.436781 -0.178532
v 0.221341 0.202856 -0.200655
v -0.212617 0.250185 -0.236248
v 0.412364 0.260131 0.237425
v 0.542999 0.396246 0.141710
v 0.469507 0.402731 0.284425
v 0.341831 0.494056 0.226686
v 0.470976 0.516942 -0.108318
v 0.329017 0.492306 -0.226264
v 0.471350 0.409079 -0.283382
v 0.194721 0.451824 -0.611874
v 0.291123 0.520485 -0.402989
v 0.308206 0.361163 -0.472195
v -0.267744 0.370207 -0.531512
v -0.266854 0.443752 -0.549152
v -0.120098 0.466176 -0.593954
v -0.248856 0.512719 -0.423779
v -0.568796 0.531185 -0.123679
v -0.578703 0.403252 -0.180331
v -0.433549 0.312062 -0.272189
v -0.404981 0.503592 -0.266062
v -0.569049 0.446283 0.211975
v -0.538665 0.269165 0.075510
v -0.480444 0.503090 0.033912
v -0.110738 0.317673 0.525653
v -0.158752 0.420083 0.568071
v -0.276417 0.414437 0.532051
v -0.115005 0.472970 0.480746
v 0.184978 0.472203 0.485849
v 0.236382 0.417594 0.602859
v 0.288392 0.472203 0.426797
v 0.363841 0.416442 0.527860
v 0.164836 0.712670 0.420581
v 0.124251 0.699734 0.358304
v -0.101039 0.756365 0.377572
v -0.191222 0.760983 0.366167
v -0.568163 0.526685 0.045979
v -0.581603 0.398995 0.106280
v -0.366142 0.769577 0.153107
v -0.419527 0.783937 0.160451
v -0.502859 0.531185 -0.302211
v -0.532021 0.403252 -0.306728
v -0.255476 0.842121 -0.155510
v -0.288615 0.842121 -0.065782
v -0.273305 0.535677 -0.497925
v -0.146421 0.790492 -0.278090
v -0.158013 0.801377 -0.313242
v 0.352272 0.455787 -0.530774
v 0.180797 0.778813 -0.310862
v 0.112229 0.784593 -0.363685
v 0.401871 0.516942 -0.259554
v 0.292661 0.744028 -0.074015
v 0.252621 0.730488 -0.055719
v 0.290235 0.769734 0.156747
v 0.253195 0.757728 0.138498
v -0.379073 0.769577 0.053468
v -0.432459 0.783937 0.060812
v -0.304668 0.855989 -0.173678
v -0.337807 0.855989 -0.083950
v -0.072284 0.796384 -0.320725
v 0.196542 0.789247 -0.342245
v 0.214641 0.730488 -0.138837
v 0.254681 0.744028 -0.157133
v 0.292005 0.757728 0.059724
v 0.329045 0.769734 0.077973
v 0.204157 0.698354 0.335860
v 0.230970 0.712670 0.382816
v -0.181309 0.751047 0.333551
vt 0.750000 0.750000
vt 0.625000 0.750000
vt 0.625000 0.625000
vt 0.625000 0.625000
vt 0.500000 0.625000
vt 0.625000 0.625000
vt 0.625000 0.375000
vt 0.503250 0.375000
vt 0.500000 0.375000
vt 0.625000 1.000000
vt 0.544973 1.000000
vt 0.500000 1.000000
vt 0.625000 0.750000
vt 0.506294 0.750000
vt 0.500000 0.750000
vt 0.625000 0.875000
vt 0.511412 0.875000
vt 0.500000 0.875000
vt 0.625000 0.625000
vt 0.500299 0.625000
vt 0.500000 0.625000
vt 0.875000 0.500000
vt 0.750000 0.500000
vt 0.875000 0.500000
vt 0.625000 0.375000
vt 0.625000 0.875000
vt 0.875000 0.625000
vt 0.875000 0.750000
vt 0.500000 0.125000
vt 0.500000 0.125000
vt 0.625000 0.125000
vt 0.625000 0.125000
vt 0.500000 0.625000
vt 0.500000 0.375000
vt 0.625000 0.375000
vt 0.625000 0.375000
vt 0.500000 0.375000
vt 0.125000 0.750000
vt 0.125000 0.625000
vt 0.375000 0.750000
vt 0.250000 0.750000
vt 0.500000 0.875000
vt 0.500000 0.875000
vt 0.500000 0.750000
vt 0.625000 0.500000
vt 0.750000 0.500000
vt 0.125000 0.500000
vt 0.250000 0.500000
vt 0.375000 0.500000
vt 0.375000 0.625000
vt 0.500000 1.000000
vt 0.625000 1.000000
vt 0.875000 0.500000
vt 0.375000 0.125000
vt 0.375000 0.000000
vt 0.500000 0.000000
vt 0.500000 0.500000
vt 0.375000 0.875000
vt 0.375000 0.375000
vt 0.375000 0.250000
vt 0.500000 0.250000
vt 0.375000 1.000000
vt 0.507323 0.750000
vt 0.500000 0.750000
vt 0.625000 0.750000
vt 0.625000 0.500000
vt 0.500000 0.500000
vt 0.625000 0.500000
vt 0.750000 0.500000
vt 0.500000 0.500000
vt 0.525215 0.375000
vt 0.500000 0.250000
vt 0.500000 0.250000
vt 0.875000 0.500000
vt 0.750000 0.500000
vt 0.625000 0.250000
vt 0.625000 0.250000
vt 0.500000 0.125000
vt 0.625000 0.125000
vt 0.500000 0.250000
vt 0.625000 0.250000
vt 0.875000 0.500000
vt 0.875000 0.625000
vt 0.625000 0.125000
vt 0.500000 0.125000
vt 0.500000 1.000000
vt 0.625000 1.000000
vt 0.875000 0.625000
vt 0.875000 0.750000
vt 0.500000 0.000000
vt 0.506484 1.000000
vt 0.875000 0.750000
vt 0.750000 0.750000
vt 0.625000 0.875000
vt 0.625000 0.875000
vt 0.506788 0.875000
vt 0.750000 0.750000
vt 0.625000 0.875000
vt 0.625000 0.875000
vt 0.625000 1.000000
vt 0.500000 0.125000
vt 0.544973 0.000000
vt 0.625000 0.125000
vt 0.625000 1.000000
vt 0.625000 1.000000
vt 0.625000 0.250000
vt 0.500000 0.250000
vt 0.875000 0.500000
vt 0.875000 0.625000
vt 0.625000 0.250000
vt 0.625000 0.250000
vt 0.625000 0.250000
vt 0.625000 0.500000
vt 0.750000 0.500000
vt 0.507908 0.500000
vt 0.625000 0.500000
vt 0.625000 0.625000
vt 0.625000 0.625000
vt 0.625000 0.750000
vt 0.625000 0.750000
vt 0.875000 0.625000
vt 0.875000 0.750000
vt 0.875000 0.750000
vt 0.875000 0.625000
vt 0.625000 0.125000
vt 0.625000 0.125000
vt 0.625000 0.000000
vt 0.875000 0.625000
vt 0.875000 0.500000
vt 0.625000 0.250000
vt 0.625000 0.250000
vt 0.625000 0.125000
vt 0.625000 0.125000
vt 0.625000 0.375000
vt 0.625000 0.500000
vt 0.625000 0.500000
vt 0.625000 0.500000
vt 0.625000 0.625000
vt 0.625000 0.625000
vt 0.750000 0.750000
vt 0.625000 0.750000
vt 0.625000 0.750000
vt 0.750000 0.750000
vt 0.875000 0.750000
vt 0.750000 0.750000
vt 0.875000 0.750000
vt 0.625000 1.000000
vn -0.0041 0.9980 -0.0628
vn -0.0205 0.9991 -0.0359
vn 0.0000 1.0000 0.0000
vn 0.4234 0.0685 0.9033
vn 0.4232 0.0659 0.9036
vn 0.4176 -0.0073 0.9086
vn -0.9855 -0.0545 -0.1606
vn -0.8849 -0.0271 -0.4650
vn -0.8979 -0.1121 -0.4258
vn 0.1034 0.0962 0.9900
vn 0.1076 0.0597 0.9924
vn 0.1100 0.0381 0.9932
vn 0.8295 0.1007 -0.5493
vn 0.8264 0.1041 -0.5533
vn 0.8241 0.1067 -0.5563
vn 0.9934 -0.0187 0.1136
vn 0.8375 0.1665 0.5204
vn 0.8341 0.1743 0.5234
vn 0.4255 0.0801 -0.9014
vn 0.3968 0.0264 -0.9175
vn 0.3862 0.0073 -0.9224
vn 0.3545 0.2451 0.9024
vn 0.4742 -0.2331 0.8490
vn 0.0795 0.9593 0.2708
vn -0.6174 -0.1638 0.7694
vn 0.4672 -0.3564 -0.8091
vn 0.0172 0.9985 -0.0520
vn -0.4859 -0.0342 0.8734
vn 0.4825 0.1059 -0.8695
vn -0.8645 0.0560 -0.4994
vn 0.9356 0.0889 -0.3418
vn -0.0000 -1.0000 -0.0000
vn 0.4075 -0.8281 0.3850
vn 0.2168 -0.8994 0.3796
vn 0.1949 -0.9195 0.3414
vn 0.4249 0.0954 0.9002
vn 0.3988 -0.8958 0.1965
vn 0.0824 0.1408 0.9866
vn -0.8366 -0.5334 0.1249
vn 0.7954 -0.4850 -0.3635
vn 0.4328 -0.4882 0.7579
vn -0.2827 -0.4301 -0.8574
vn 0.3516 -0.4381 -0.8273
vn 0.7807 -0.4926 0.3846
vn -0.8075 -0.4669 -0.3606
vn -0.2153 -0.5143 0.8302
vn 0.8929 0.0015 0.4502
vn 0.8926 0.0416 0.4489
vn 0.7849 -0.4669 0.4073
vn -0.3687 -0.0014 0.9295
vn 0.2505 -0.9602 0.1234
vn -0.2505 0.9602 -0.1234
vn -0.2674 0.9558 0.1222
vn -0.3935 0.0293 -0.9189
vn -0.3902 0.0639 -0.9185
vn -0.3931 0.0337 -0.9189
vn 0.8921 -0.1993 -0.4055
vn 0.5562 -0.7883 -0.2630
vn 0.8992 -0.1583 -0.4080
vn -0.1277 0.9586 0.2546
vn 0.9163 0.0517 0.3972
vn 0.0956 -0.8969 -0.4317
vn -0.2373 -0.1112 -0.9651
vn -0.1805 -0.3261 -0.9280
vn -0.2705 0.0456 -0.9616
vn -0.0950 -0.9207 -0.3786
vn 0.0883 0.9594 0.2679
vn -0.9635 0.0542 0.2621
vn -0.4774 -0.2627 0.8385
vn 0.2864 0.1054 -0.9523
vn -0.2936 -0.9279 -0.2296
vn 0.2398 0.9668 0.0886
vn -0.2308 -0.0187 -0.9728
vn -0.9683 0.1742 -0.1791
vn 0.2554 0.9663 -0.0331
vn -0.2549 -0.9663 0.0365
vn -0.2498 -0.0215 0.9681
vn -0.2511 -0.0615 0.9660
vn -0.2400 -0.4672 0.8510
vn -0.1148 -0.9072 0.4048
vn 0.0416 0.9912 -0.1260
vn 0.9051 0.1409 0.4011
vn 0.9016 0.1506 -0.4056
vn -0.8861 0.0656 0.4589
vn -0.8922 0.1027 0.4399
vn -0.8897 0.0864 0.4483
vn -0.8072 0.1434 0.5726
vn -0.0562 0.9936 -0.0984
vn -0.8835 0.0523 0.4655
vn 0.4989 -0.1176 0.8586
vn 0.3600 -0.6913 0.6265
vn 0.4978 -0.1344 0.8568
vn -0.0896 0.8931 0.4408
vn -0.1616 0.6734 0.7214
vn -0.9837 -0.1205 0.1334
vn -0.9359 -0.3012 0.1826
vn -0.9835 -0.1221 0.1338
vn -0.9726 0.1868 -0.1386
vn -0.9761 0.2014 -0.0812
vn -0.9753 0.1964 -0.1012
vn -0.9895 0.1318 0.0586
vn 0.1010 0.1165 0.9880
vn -0.4657 -0.1533 -0.8715
vn -0.9150 0.2205 -0.3379
vn 0.8297 -0.4665 0.3064
vn -0.6173 -0.7530 -0.2280
vn 0.3241 -0.0271 -0.9456
vn -0.9814 -0.0693 0.1790
vn -0.3230 0.4433 -0.8362
vn -0.9228 0.1555 0.3524
vn 0.9962 -0.0868 0.0017
vn 0.9499 -0.0351 -0.3104
vn 0.9433 0.0215 -0.3311
vn -0.4730 0.2791 0.8357
vn -0.4617 -0.4283 0.7768
vn 0.4151 -0.0208 -0.9095
vn 0.4146 -0.0115 -0.9099
vn 0.3627 -0.6191 -0.6965
vn 0.7650 0.5490 -0.3366
vn 0.9079 0.1588 0.3879
vn 0.8729 -0.1126 0.4747
vn 0.8944 -0.0126 0.4470
vn 0.3683 0.1506 0.9174
vn -0.3442 0.1698 0.9234
vn -0.3744 0.1116 0.9205
vn -0.4453 -0.0422 0.8944
vn -0.3995 -0.0552 -0.9151
vn -0.4691 -0.1012 0.8773
vn -0.1056 0.1127 -0.9880
vn 0.9307 -0.3452 -0.1208
vn -0.8842 0.4345 0.1716
vn 0.3762 0.1333 -0.9169
vn -0.3169 0.1101 0.9420
vn -0.7651 0.5786 -0.2826
vn -0.1369 0.6269 -0.7670
vn 0.3356 -0.4991 0.7989
vn 0.2955 0.5954 -0.7471
vn -0.1188 0.9585 0.2591
vn 0.9039 0.2377 0.3556
vn -0.7836 -0.5077 0.3581
vn -0.4443 0.1129 -0.8887
vn 0.7182 0.6136 -0.3282
vn 0.7739 0.5085 0.3775
vn 0.4354 0.0993 -0.8948
vn -0.8182 -0.4099 -0.4031
vn -0.0728 0.9773 -0.1989
vn -0.3560 -0.4953 -0.7924
vn 0.8314 0.0985 -0.5468
vn 0.4240 0.5464 0.7223
vn 0.3597 -0.3681 -0.8574
vn 0.0830 0.9601 -0.2672
vn -0.9708 0.1821 -0.1563
usemtl Material.001
s 1
f 1/1/1 29/2/2 14/3/3
f 34/4/4 33/5/5 45/6/6
f 19/7/7 48/8/8 20/9/9
f 36/10/10 59/11/11 37/12/12
f 68/13/13 69/14/14 27/15/15
f 65/16/16 63/17/17 62/18/18
f 15/19/19 42/20/20 16/21/21
f 83/22/22 97/23/23 84/24/24
f 19/7/7 87/25/25 48/8/8
f 65/16/16 72/26/26 63/17/17
f 1/1/1 2/27/3 3/28/27
f 9/29/28 7/30/28 2/31/28 8/32/28
f 16/21/29 13/33/29 14/3/29 15/19/29
f 19/7/30 20/9/30 17/34/30 18/35/30
f 22/36/31 18/35/31 17/34/31 21/37/31
f 24/38/32 23/39/32 11/40/33 12/41/34
f 27/15/35 28/42/35 25/43/35 26/44/35
f 1/1/1 14/3/3 30/45/3 18/46/3
f 11/40/33 23/39/32 31/47/32 32/48/32
f 33/5/5 34/4/4 14/3/36 13/33/36
f 11/40/33 32/48/32 35/49/32 10/50/37
f 37/12/38 4/51/38 3/52/38 36/10/38
f 1/1/1 18/46/3 38/53/3 2/27/3
f 7/30/39 23/54/39 24/55/39 4/56/39
f 10/50/40 35/49/40 39/57/40 13/33/40
f 12/58/34 11/40/33 26/44/41 25/43/41
f 17/34/42 32/59/42 31/60/42 40/61/42
f 39/57/43 35/49/43 32/59/43 17/34/43
f 26/44/44 11/40/33 10/50/37 13/33/44
f 31/60/45 23/54/45 7/30/45 40/61/45
f 24/62/46 12/58/46 25/43/46 4/51/46
f 42/20/47 43/63/48 41/64/49 16/21/49
f 44/65/50 29/2/50 26/44/50 41/64/50
f 41/64/51 26/44/51 13/33/51 16/21/51
f 44/65/52 15/19/52 14/3/52 29/2/52
f 46/66/53 30/45/53 14/3/53 34/4/53
f 47/67/54 39/57/55 30/45/55 46/66/56
f 33/5/57 13/33/58 39/57/58 47/67/59
f 49/68/60 19/69/60 18/46/60 30/45/60
f 50/70/61 49/68/61 30/45/61 39/57/61
f 50/70/62 39/57/62 17/34/62 20/9/62
f 53/71/63 21/37/64 51/72/64 52/73/65
f 21/37/66 17/34/66 40/61/66 51/72/66
f 54/74/67 38/53/67 18/46/67 22/75/67
f 54/76/68 51/72/68 40/61/68 38/77/68
f 56/78/69 9/29/69 8/32/69 55/79/69
f 57/80/70 58/81/70 38/77/70 40/61/70
f 9/29/71 57/80/71 40/61/71 7/30/71
f 58/82/72 8/83/72 2/27/72 38/53/72
f 61/84/73 2/31/73 7/30/73 60/85/73
f 5/86/74 6/87/74 3/52/74 4/51/74
f 61/88/75 36/89/75 3/28/75 2/27/75
f 37/90/76 60/85/76 7/30/76 4/56/76
f 63/17/77 64/91/78 5/86/79 62/18/79
f 62/18/80 5/86/80 4/51/80 25/43/80
f 6/92/81 65/93/81 1/1/1 3/28/27
f 62/18/82 25/43/82 1/94/82 65/16/82
f 27/15/83 26/44/83 29/2/83 68/13/83
f 66/95/84 28/42/85 67/96/86
f 28/42/87 66/95/87 1/94/87 25/43/87
f 66/97/88 68/13/88 29/2/2 1/1/1
f 70/98/89 71/99/89 66/95/84 67/96/86
f 67/96/90 28/42/91 27/15/91 69/14/92
f 73/100/93 64/91/78 63/17/77 72/26/94
f 75/101/95 60/85/96 37/90/96 59/102/97
f 6/87/98 5/86/99 64/91/100
f 59/102/97 74/103/101 75/101/95
f 77/104/102 59/11/11 36/10/10 76/105/102
f 75/101/103 74/103/103 61/84/103 60/85/103
f 78/106/104 79/107/104 56/78/104 55/79/104
f 80/108/105 81/109/105 8/83/105 58/82/105
f 56/78/106 79/107/106 57/80/106 9/29/106
f 79/107/107 78/106/107 58/81/107 57/80/107
f 52/73/108 51/72/108 54/76/108 82/110/108
f 52/73/65 82/110/109 53/71/63
f 84/111/110 82/110/110 54/76/110 83/112/110
f 22/36/111 21/37/112 53/71/113
f 86/113/114 87/114/25 19/69/7 49/68/115
f 48/8/116 85/115/117 50/70/118 20/9/118
f 45/6/119 33/5/57 47/67/59 88/116/119
f 49/68/120 50/70/121 85/115/122
f 89/117/123 90/118/123 34/4/123 45/6/123
f 91/119/124 92/120/124 44/65/125 43/63/126
f 46/66/56 88/116/127 47/67/54
f 44/65/125 41/64/128 43/63/126
f 94/121/75 77/122/75 76/123/75 93/124/75
f 94/125/129 93/126/129 61/84/129 74/103/129
f 93/124/130 76/123/130 36/89/130 61/88/130
f 77/127/131 94/125/131 74/103/131 59/102/131
f 96/128/72 81/109/72 80/108/72 95/129/72
f 95/130/132 80/131/132 58/81/132 78/106/132
f 96/132/133 55/79/133 8/32/133 81/133/133
f 95/130/134 78/106/134 55/79/134 96/132/134
f 84/111/135 97/134/135 53/71/135 82/110/135
f 83/22/22 54/74/136 22/75/111 97/23/23
f 22/36/111 53/71/113 97/134/23
f 98/135/137 85/115/117 48/8/116 87/25/137
f 86/113/114 98/135/138 87/114/25
f 98/135/139 86/113/139 49/68/120 85/115/122
f 89/117/53 100/136/53 99/137/53 90/118/53
f 90/118/140 99/137/140 46/66/140 34/4/140
f 100/136/141 88/116/141 46/66/141 99/137/141
f 89/117/142 45/6/142 88/116/142 100/136/142
f 102/138/52 101/139/52 92/120/52 91/119/52
f 91/119/143 43/63/48 42/20/47 102/138/143
f 102/138/144 42/20/20 15/19/19 101/139/144
f 92/120/145 101/139/145 15/19/145 44/65/145
f 70/140/146 104/141/146 103/142/146 71/143/146
f 103/142/147 68/13/147 66/97/147 71/143/147
f 104/141/148 69/14/14 68/13/13 103/142/148
f 104/141/149 70/98/149 67/96/90 69/14/92
f 105/144/150 72/145/26 65/93/16 6/92/150
f 72/145/94 105/144/151 73/146/93
f 73/100/152 105/147/152 6/87/98 64/91/100
